<svg width="104" height="46" viewBox="0 0 104 46" fill="none" xmlns="http://www.w3.org/2000/svg">
<mask id="mask0_306_1340" style="mask-type:luminance" maskUnits="userSpaceOnUse" x="0" y="0" width="104" height="46">
<path d="M103.399 0H0V46H103.399V0Z" fill="white"/>
</mask>
<g mask="url(#mask0_306_1340)">
<path d="M21.1584 0C21.228 0.0349187 21.2851 0.0905361 21.3218 0.159207C21.3585 0.227879 21.3731 0.306232 21.3634 0.383499C21.3634 1.0447 21.3303 1.70591 21.3039 2.36711C21.2378 3.79531 21.1452 5.22352 20.9865 6.65172C20.8477 7.93446 20.6824 9.25686 20.4972 10.5065C20.3121 11.7562 19.9683 13.1514 19.6244 14.4738C19.0516 16.6057 18.3268 18.6938 17.4557 20.7222C17.4557 20.7552 17.416 20.7817 17.4028 20.8147C17.3455 20.8379 17.2815 20.8379 17.2243 20.8147C16.5102 20.6891 15.7894 20.5701 15.0753 20.4378C14.9986 20.436 14.9254 20.4054 14.8704 20.3519C14.8626 20.3143 14.8627 20.2755 14.8706 20.238C14.8786 20.2004 14.8943 20.1649 14.9167 20.1337C15.5939 18.6716 16.1705 17.1649 16.6424 15.6243C17.1534 13.9568 17.5576 12.2585 17.8524 10.5396C18.0574 9.42216 18.2095 8.29812 18.3483 7.16746C18.4343 6.46658 18.4938 5.7657 18.5467 5.05822L18.712 3.30602C18.712 3.0746 18.712 2.84979 18.745 2.64482C18.745 1.89766 18.8244 1.1505 18.8111 0.403335C18.8111 0.152077 18.864 0.0661205 19.0624 0H21.1584Z" fill="#00FE88"/>
<path d="M11.4323 18.646C11.6901 18.0244 11.9678 17.4095 12.2059 16.7814C12.9061 14.9461 13.4676 13.0607 13.8853 11.1413C14.1542 9.84977 14.3746 8.55156 14.5465 7.2468C14.7184 5.94203 14.8419 4.59537 14.9168 3.20684C14.9697 2.2481 15.0424 1.29596 15.0226 0.337214C15.0196 0.26944 15.0353 0.202145 15.068 0.142677C15.1006 0.0832093 15.1489 0.0338543 15.2077 0H17.3302C17.3943 0.0397123 17.4458 0.0968803 17.4786 0.164803C17.5114 0.232726 17.5241 0.308589 17.5153 0.383499C17.4823 1.93733 17.4162 3.49777 17.2773 5.0516C17.198 5.931 17.1186 6.81702 16.9996 7.69642C16.8039 9.28873 16.5213 10.8691 16.1533 12.4306C15.6191 14.6922 14.8935 16.9042 13.9845 19.0427C13.9845 19.0758 13.9514 19.1022 13.9382 19.1353C13.9079 19.1482 13.8753 19.1548 13.8423 19.1548C13.8094 19.1548 13.7768 19.1482 13.7465 19.1353C13.039 19.0096 12.3315 18.8906 11.6306 18.7584C11.5525 18.7481 11.4813 18.7077 11.4323 18.646Z" fill="#00FE88"/>
<path d="M13.5217 0C13.5857 0.0503709 13.6358 0.116339 13.6671 0.19159C13.6983 0.266841 13.7098 0.348855 13.7003 0.429783C13.7003 1.39514 13.6209 2.35389 13.5812 3.31925C13.4228 7.17275 12.7354 10.9861 11.5381 14.6523C11.2163 15.675 10.8416 16.68 10.4141 17.6674C10.4141 17.7269 10.3612 17.7732 10.3347 17.8327C10.2876 17.8493 10.2363 17.8493 10.1893 17.8327C9.39581 17.7071 8.61559 17.5153 7.82214 17.3831C8.11307 16.6888 8.42384 15.9945 8.69493 15.2937C9.51661 13.2167 10.1323 11.0641 10.5331 8.86675C10.6926 7.90139 10.7986 6.9279 10.8505 5.95084C10.8967 5.38882 10.9629 4.82679 11.0092 4.26477C11.0554 3.70275 11.0885 3.06799 11.1216 2.46629C11.1546 1.8646 11.2009 1.37531 11.2009 0.819894C11.2009 0.667817 11.2009 0.509127 11.2009 0.350438C11.1966 0.279115 11.2131 0.208078 11.2482 0.145897C11.2835 0.0837158 11.3359 0.033046 11.3993 0H13.5217Z" fill="#00FE88"/>
<path d="M2.09602 31.9362L1.98361 32.3991C1.95757 32.4105 1.92942 32.4165 1.90096 32.4165C1.8725 32.4165 1.84436 32.4105 1.81831 32.3991L0.112405 32.128C0.0715622 32.1225 0.0328309 32.1065 0 32.0817V31.5659C0 31.5659 0 31.4932 0.0528964 31.48C0.164654 31.4703 0.277213 31.4838 0.383499 31.5197C0.899238 31.6034 1.41498 31.696 1.93072 31.7974C1.98361 31.8106 2.11585 31.7974 2.09602 31.9362Z" fill="#00B162"/>
<path d="M1.8778 32.842L1.79184 33.5429C1.76637 33.4997 1.73081 33.4633 1.68821 33.4369C1.64561 33.4103 1.59723 33.3945 1.5472 33.3908L0.224789 33.1594C0.179007 33.158 0.134923 33.1418 0.0991606 33.1131C0.039652 32.9677 0.0991606 32.8024 0.0065918 32.6569V32.5048C0.0594882 32.4585 0.118997 32.5048 0.178505 32.5048C0.714081 32.5842 1.24304 32.6966 1.77862 32.7825C1.81829 32.7759 1.8778 32.7693 1.8778 32.842Z" fill="#00AA5F"/>
<path d="M1.87782 32.842C1.67414 32.7859 1.46631 32.7461 1.25629 32.723C0.83973 32.6437 0.416559 32.5776 0 32.5048V32.0817C0.277706 32.0817 0.542188 32.1676 0.813282 32.2073C1.20339 32.2668 1.58028 32.3461 1.97039 32.4123C1.94974 32.5575 1.91881 32.7011 1.87782 32.842Z" fill="#00AE61"/>
<path d="M0.0330602 31.5064C0.0330602 31.5064 0.0330602 31.5527 0.0330602 31.5659V31.3807H0C0.0209001 31.3931 0.036082 31.4133 0.0422676 31.4367C0.0484531 31.4603 0.0451459 31.4853 0.0330602 31.5064Z" fill="#9EE2C4"/>
<path d="M18.6128 39.6722H29.6682C29.9525 39.6722 30.0385 39.7582 30.0385 40.0425V41.8476C30.0385 42.0658 29.9393 42.165 29.7277 42.165H15.9151C15.8688 42.0724 15.9482 42.0327 15.9945 41.9931L16.8871 41.1996C17.2971 40.8426 17.707 40.4855 18.1103 40.1219C18.263 39.9562 18.4313 39.8056 18.6128 39.6722Z" fill="#00FE88"/>
<path d="M18.9766 35.8175H29.6749C29.714 35.8165 29.7527 35.8236 29.7889 35.8384C29.8251 35.853 29.8579 35.8751 29.8852 35.903C29.9124 35.9309 29.9337 35.9641 29.9476 36.0006C29.9615 36.0371 29.9677 36.0761 29.9658 36.1151V38.0193C29.9699 38.0588 29.9651 38.0987 29.952 38.1362C29.9389 38.1736 29.9177 38.2077 29.89 38.2361C29.8622 38.2645 29.8286 38.2865 29.7914 38.3004C29.7543 38.3143 29.7145 38.3199 29.6749 38.3169H8.00724C8.00433 38.3107 8.00281 38.3039 8.00281 38.297C8.00281 38.2902 8.00433 38.2834 8.00724 38.2772C8.0838 38.2636 8.16216 38.2636 8.23866 38.2772H14.3879C14.8573 38.2772 15.3268 38.2772 15.7962 38.2772C15.8565 38.2767 15.9148 38.2558 15.9615 38.2177C16.8806 37.4573 17.8195 36.7234 18.7518 35.9762C18.8134 35.9065 18.8903 35.8521 18.9766 35.8175Z" fill="#00FE88"/>
<path d="M20.094 43.5139H29.622C29.9262 43.5139 30.0055 43.5933 30.0055 43.8974V45.6232C30.0055 45.8612 29.8997 45.9736 29.6683 45.9736H17.7005C17.6476 45.9075 17.7005 45.8612 17.7402 45.8149C17.9517 45.5901 18.1964 45.3851 18.4014 45.1537C18.6063 44.9223 18.7253 44.8628 18.8576 44.6909C18.9898 44.519 19.0758 44.4793 19.1816 44.3735C19.4923 44.109 19.7767 43.7916 20.094 43.5139Z" fill="#00FE88"/>
<path d="M12.9133 24.1341C13.1249 23.7506 13.3365 23.3737 13.5415 22.9836C13.9845 22.1637 14.4077 21.3306 14.7912 20.4776C14.8048 20.4405 14.8226 20.405 14.844 20.3718C15.1241 20.4487 15.409 20.5062 15.697 20.5437L17.3698 20.8347C17.0855 21.4364 16.8078 22.0513 16.5103 22.653C16.2127 23.2547 15.9152 23.8762 15.578 24.4647C15.5511 24.5176 15.5201 24.5685 15.4854 24.6168C14.6854 24.4647 13.8721 24.3391 13.072 24.1804C13.0157 24.1814 12.9603 24.1652 12.9133 24.1341Z" fill="#00FB86"/>
<path d="M12.9134 24.1339C13.1523 24.1435 13.3895 24.1789 13.6208 24.2397C14.1829 24.3257 14.7515 24.4315 15.3135 24.5372C15.373 24.5372 15.459 24.5372 15.4854 24.6166C15.2077 25.1984 14.8639 25.7869 14.5465 26.3159C14.1167 26.2299 13.6804 26.177 13.2241 26.0646C12.7679 25.9522 12.51 25.9456 12.153 25.8729C12.0802 25.8729 11.9877 25.8729 11.948 25.7737L12.9134 24.1339Z" fill="#00F684"/>
<path d="M18.9766 35.8174C18.7297 36.0555 18.4668 36.2764 18.1897 36.4786C17.7137 36.8687 17.2244 37.2456 16.7483 37.6357C16.4779 37.8411 16.2197 38.0618 15.9747 38.2969C15.9747 38.2969 15.902 38.2969 15.8623 38.2969H14.4605C14.4209 38.2242 14.4605 38.1911 14.5267 38.1514C14.7647 37.9399 15.0226 37.7547 15.2672 37.5564C15.9945 36.9811 16.7086 36.3992 17.4293 35.824L18.9766 35.8174Z" fill="#00FC87"/>
<path d="M10.3148 28.3193L11.1347 27.0498C11.3403 27.0519 11.5449 27.0808 11.743 27.1358C12.3315 27.2283 12.9266 27.3341 13.515 27.4399C13.5643 27.45 13.6129 27.4633 13.6605 27.4796C13.7134 27.4796 13.7663 27.5259 13.7332 27.5986C13.4952 28.0284 13.2241 28.4383 12.9464 28.8417C12.1662 28.683 11.386 28.564 10.5793 28.4317C10.5066 28.4317 10.3942 28.4317 10.3148 28.3193Z" fill="#00F081"/>
<path d="M10.3147 28.3195L12.8405 28.7757C12.8868 28.7757 12.9397 28.7757 12.9463 28.8418C12.6818 29.2584 12.4107 29.6749 12.1198 30.0783C11.6504 30.0055 11.1809 29.913 10.7114 29.827C10.4073 29.7807 10.1031 29.7278 9.8056 29.6683C9.74926 29.6661 9.69392 29.6528 9.64281 29.6289C9.5917 29.605 9.54588 29.5712 9.50806 29.5295C9.76593 29.0931 10.037 28.7162 10.3147 28.3195Z" fill="#00EB7F"/>
<path d="M13.7333 27.5987C13.6804 27.4532 13.5349 27.4929 13.4358 27.4797C12.6886 27.3342 11.9414 27.2086 11.1877 27.0763H11.1348L11.948 25.787C12.2523 25.8668 12.5616 25.9264 12.8737 25.9655C13.3961 26.0779 13.9118 26.1903 14.4342 26.2697C14.4521 26.2724 14.4692 26.2792 14.484 26.2895C14.4989 26.2998 14.5113 26.3134 14.5201 26.3292C14.2689 26.7523 14.011 27.1821 13.7333 27.5987Z" fill="#00F283"/>
<path d="M9.50807 29.5293C9.99815 29.6668 10.4976 29.7685 11.0024 29.8335L12.0008 30.0186C12.0238 30.0193 12.0463 30.025 12.0669 30.0352C12.0874 30.0456 12.1055 30.0602 12.1198 30.0781C11.8978 30.4386 11.6572 30.7873 11.3991 31.1228C10.5924 30.9377 9.76594 30.8253 8.95265 30.6732C8.87992 30.6732 8.80058 30.6732 8.74768 30.5938L9.50807 29.5293Z" fill="#00E67D"/>
<path d="M20.0939 43.5139C19.9617 43.7065 19.8012 43.8782 19.6179 44.023C19.4856 44.1552 19.3468 44.2809 19.2212 44.4131C18.9831 44.671 18.7186 44.9024 18.4872 45.1603C18.2558 45.4181 18.0178 45.6165 17.7863 45.8215C17.7401 45.8611 17.6938 45.9008 17.7004 45.9735H16.6425C16.6425 45.8942 16.6425 45.8479 16.7218 45.8082C17.2177 45.2991 17.7136 44.79 18.2293 44.3007C18.5137 44.0362 18.7781 43.7519 19.0625 43.494L20.0939 43.5139Z" fill="#00FB86"/>
<path d="M18.6129 39.6722C18.3286 39.9896 17.9914 40.2475 17.6872 40.5384C17.4955 40.7169 17.2839 40.8822 17.0856 41.0608L16.0805 41.9468C16.0144 42.0063 15.9284 42.0526 15.9152 42.1518H14.8837C14.8441 42.0922 14.8837 42.0592 14.9234 42.0261C15.373 41.6426 15.8094 41.2525 16.2458 40.8624C16.6822 40.4723 17.0591 40.1549 17.4558 39.7913C17.4987 39.7426 17.5503 39.7023 17.6079 39.6722H18.6129Z" fill="#00F785"/>
<path d="M8.74783 30.594L11.1216 31.0106C11.2207 31.0106 11.3398 31.0106 11.3993 31.123L10.8835 31.8701C10.8251 31.8865 10.7634 31.8865 10.705 31.8701C9.91155 31.7313 9.11811 31.5792 8.32466 31.4536C8.26859 31.449 8.21649 31.4229 8.1792 31.3808L8.74783 30.594Z" fill="#00E27B"/>
<path d="M8.17907 31.3807L10.5792 31.8039C10.6939 31.8124 10.8071 31.8347 10.9165 31.87C10.7637 32.1333 10.589 32.3833 10.3941 32.6172C10.2576 32.622 10.1214 32.6042 9.99077 32.5643L7.9212 32.2006C7.84186 32.2006 7.7559 32.2006 7.703 32.1147C7.84827 31.8616 8.00722 31.6165 8.17907 31.3807Z" fill="#00E079"/>
<path d="M17.4294 35.8174C17.3172 35.9715 17.1757 36.1018 17.0128 36.2009L15.5251 37.3977C15.2738 37.596 15.016 37.7878 14.7647 37.9927C14.6589 38.0853 14.5201 38.1514 14.4606 38.2903H13.5481C13.5481 38.1713 13.6473 38.1316 13.7134 38.0787L14.8507 37.1729L16.55 35.8504L17.4294 35.8174Z" fill="#00F785"/>
<path d="M6.78394 33.4438C6.92319 33.2148 7.07553 32.994 7.24017 32.7826C7.26886 32.7681 7.3006 32.7605 7.33274 32.7605C7.36494 32.7605 7.39661 32.7681 7.4253 32.7826L9.69985 33.1859C9.77919 33.1859 9.8916 33.1859 9.91143 33.3115L9.40231 34.0521C9.1451 33.9403 8.87361 33.8646 8.59564 33.8273C8.06667 33.7281 7.53771 33.6289 7.00213 33.543C6.92279 33.5297 6.83683 33.5231 6.78394 33.4438Z" fill="#00D976"/>
<path d="M6.784 33.4438C7.26668 33.5695 7.76258 33.6224 8.25848 33.7149L9.27674 33.9001C9.34286 33.9001 9.39576 33.9001 9.40237 33.9993C9.27674 34.2108 9.1445 34.4092 9.00564 34.601C8.78288 34.5904 8.56151 34.5595 8.34444 34.5084L6.55259 34.191C6.47986 34.191 6.40712 34.191 6.36084 34.1117C6.48527 33.8789 6.6267 33.6557 6.784 33.4438Z" fill="#00D474"/>
<path d="M9.91801 33.2586C9.87834 33.1792 9.79238 33.1925 9.73287 33.1792L7.74926 32.842L7.27319 32.7495C7.40246 32.5203 7.54601 32.2994 7.70298 32.0883L9.1973 32.3594L10.242 32.5379L10.3941 32.5908C10.2521 32.8248 10.0929 33.048 9.91801 33.2586Z" fill="#00DC78"/>
<path d="M19.0624 43.5139C19.0624 43.5866 18.9963 43.6263 18.95 43.666C18.2183 44.3845 17.4932 45.1008 16.7746 45.8149C16.7179 45.8638 16.6726 45.9248 16.6424 45.9934H15.8688C15.8291 45.9008 15.9085 45.8678 15.9548 45.8215C16.2655 45.5173 16.5697 45.2 16.8937 44.8958C17.3433 44.4793 17.7665 44.0429 18.2161 43.5734C18.2424 43.536 18.2762 43.5045 18.3153 43.4808L19.0624 43.5139Z" fill="#00F684"/>
<path d="M6.61202 39.0838L6.45995 39.6723C6.47148 39.7258 6.46767 39.7815 6.44896 39.833C6.43024 39.8844 6.39738 39.9296 6.35416 39.9632C6.07856 39.938 5.80476 39.8961 5.53426 39.8376C5.19044 39.7847 4.87306 39.7054 4.50279 39.6392C4.4463 39.6398 4.39178 39.6185 4.35071 39.5797C4.30448 39.3239 4.30448 39.0619 4.35071 38.8061C4.35269 38.7888 4.35845 38.7721 4.36759 38.7573C4.37673 38.7424 4.38903 38.7297 4.4036 38.7202C4.46086 38.697 4.52487 38.697 4.58213 38.7202L6.44012 39.0508C6.4995 39.0419 6.56014 39.0536 6.61202 39.0838Z" fill="#00B463"/>
<path d="M6.36751 34.1116L8.54286 34.5017C8.70083 34.5142 8.85647 34.5476 9.00571 34.6009C8.89462 34.7988 8.77329 34.9908 8.64204 35.1761C8.54908 35.2024 8.45069 35.2024 8.35773 35.1761L6.26172 34.7992C6.17576 34.7992 6.08319 34.7992 6.02368 34.7133C6.12447 34.5051 6.23935 34.304 6.36751 34.1116Z" fill="#00D172"/>
<path d="M5.42188 35.8108L5.73925 35.2092C5.78632 35.1925 5.83766 35.1925 5.88472 35.2092L8.08656 35.5927C8.16591 35.5927 8.29154 35.5927 8.30476 35.7249V35.8108C8.25041 35.997 8.14508 36.1642 8.00061 36.2935C7.7229 36.2935 7.44519 36.201 7.16749 36.1481L5.65991 35.8836C5.57441 35.8887 5.48993 35.8628 5.42188 35.8108Z" fill="#00CB6F"/>
<path d="M8.30471 35.705C8.30471 35.6455 8.23198 35.6455 8.18569 35.6389L5.95084 35.262L5.73926 35.2091C5.8221 35.0287 5.91709 34.8543 6.02358 34.6868C6.79717 34.8256 7.56416 34.9711 8.33777 35.1033C8.44118 35.1181 8.54301 35.1425 8.64193 35.1761C8.53917 35.3583 8.42657 35.5349 8.30471 35.705Z" fill="#00CE71"/>
<path d="M2.44641 37.6886C2.38923 37.5271 2.34501 37.3613 2.31416 37.1927C2.30722 37.1316 2.28185 37.0739 2.24143 37.0274C2.24143 36.9216 2.1687 36.8225 2.24143 36.7167C2.54559 36.7167 2.84974 36.8159 3.15389 36.8688L3.8151 36.9944C3.87699 36.997 3.93675 37.0177 3.98701 37.0539C4.01357 37.1219 4.01357 37.1974 3.98701 37.2655C3.94073 37.4043 3.98701 37.5498 3.98701 37.6886C3.98701 37.8275 3.98701 37.8473 3.93412 37.9135C3.88751 37.9326 3.83526 37.9326 3.78865 37.9135L2.54559 37.6886C2.51271 37.6935 2.47929 37.6935 2.44641 37.6886Z" fill="#00AB5F"/>
<path d="M18.3088 43.5139C18.2791 43.5792 18.2364 43.6378 18.1831 43.6858C17.7732 44.0892 17.3831 44.5057 16.9599 44.9024C16.5367 45.2992 16.2987 45.5637 15.9747 45.8612C15.935 45.9009 15.8822 45.9273 15.8822 45.9934H15.34C15.34 45.8876 15.3994 45.8414 15.4589 45.7818C16.0474 45.1735 16.6822 44.6115 17.2707 44.0032C17.4294 43.8379 17.5881 43.6726 17.76 43.5139H18.3088Z" fill="#00EF81"/>
<path d="M17.76 43.5139C17.76 43.58 17.7071 43.6065 17.6741 43.6462C17.2377 44.0826 16.8211 44.5256 16.3516 44.9686C16.0409 45.2529 15.7499 45.557 15.4458 45.8546C15.3914 45.8989 15.3483 45.9556 15.3202 46.0199H14.7714C14.7714 45.9075 14.8441 45.8612 14.9036 45.8017C15.6309 45.0942 16.3583 44.3999 17.0724 43.6858L17.2244 43.5404L17.76 43.5139Z" fill="#00E97E"/>
<path d="M4.51594 41.0872L4.44982 40.9153C4.37857 40.7487 4.35565 40.5654 4.3837 40.3863C4.40557 40.3767 4.42922 40.3717 4.45313 40.3717C4.47703 40.3717 4.50068 40.3767 4.52256 40.3863L6.12267 40.6706C6.15844 40.6757 6.19245 40.6893 6.22184 40.7103C6.28797 40.8624 6.22184 41.0145 6.22184 41.1665C6.22184 41.3186 6.22184 41.3252 6.16234 41.3913C6.13552 41.4042 6.10614 41.4109 6.07638 41.4109C6.04663 41.4109 6.01725 41.4042 5.99043 41.3913L4.66802 41.1599C4.61138 41.1509 4.55856 41.1256 4.51594 41.0872Z" fill="#00AA5E"/>
<path d="M16.3979 39.6722H16.8541C16.8541 39.745 16.8541 39.7913 16.7814 39.8309C16.4111 40.1483 16.0541 40.4921 15.6838 40.7963L14.7449 41.6559C14.5485 41.8424 14.341 42.0169 14.1234 42.1782H13.6671C13.6341 42.0526 13.7399 42.0063 13.806 41.9534C14.2424 41.5897 14.6457 41.1996 15.0887 40.8426C15.5317 40.4855 15.9549 40.0359 16.3979 39.6722Z" fill="#00E87E"/>
<path d="M17.2442 43.5139C17.2442 43.5866 17.1847 43.6196 17.145 43.6593L15.4854 45.2925L14.9167 45.8281C14.8624 45.8724 14.8193 45.9291 14.7911 45.9934H14.3679C14.3283 45.9273 14.3679 45.8876 14.4208 45.8545C14.8572 45.4181 15.2804 44.9751 15.7432 44.5321C16.0077 44.2809 16.259 44.0164 16.5168 43.7651L16.7813 43.494L17.2442 43.5139Z" fill="#00E27A"/>
<path d="M11.3661 42.1452H10.9099C10.8702 42.0857 10.9099 42.0526 10.9628 42.0261L12.5629 40.631C12.9332 40.307 13.2836 39.9698 13.6671 39.6656H14.1168C14.1168 39.7318 14.1168 39.7648 14.0506 39.8045C13.7465 40.0888 13.4291 40.3599 13.1117 40.631C12.7943 40.9021 12.4505 41.2592 12.0802 41.5567C11.8533 41.766 11.615 41.9625 11.3661 42.1452Z" fill="#00BB67"/>
<path d="M15.5186 39.6722H15.9748C15.9748 39.7384 15.9748 39.778 15.9087 39.8111L14.3152 41.2195C13.9978 41.4972 13.654 41.7683 13.3829 42.0592C13.3407 42.0958 13.294 42.1269 13.2441 42.1518H12.7944C12.7944 42.0195 12.9135 41.96 12.9994 41.8873L14.507 40.5649C14.8442 40.2541 15.2078 39.9566 15.5186 39.6722Z" fill="#00DE78"/>
<path d="M10.8504 38.2903H10.4008C10.4008 38.2043 10.4603 38.1713 10.5132 38.1316C11.2802 37.5101 12.0472 36.8951 12.8142 36.2868C13.0072 36.1154 13.2127 35.9584 13.4291 35.8174H13.8853C13.925 35.91 13.8456 35.943 13.7993 35.9827C13.1977 36.4588 12.596 36.9348 12.0009 37.4175C11.6637 37.6886 11.3397 37.9531 10.9892 38.2308C10.9459 38.257 10.8992 38.2769 10.8504 38.2903Z" fill="#00D071"/>
<path d="M2.44641 37.6887C2.72396 37.7189 2.99982 37.763 3.27292 37.821C3.49111 37.8688 3.71188 37.9041 3.93412 37.9268C3.97448 37.9834 3.99953 38.0494 4.00685 38.1185C3.99364 38.2835 3.99364 38.4494 4.00685 38.6144C4.00685 38.6739 4.00685 38.7268 4.00685 38.7731C3.72915 38.7731 3.46467 38.6938 3.19357 38.6541L2.79024 38.5946C2.64375 38.3057 2.52849 38.0021 2.44641 37.6887Z" fill="#00A35B"/>
<path d="M8.00048 38.3035C7.70294 38.3035 7.40539 38.3035 7.11446 38.3035C6.98222 38.3035 6.90949 38.3035 6.87643 38.4622C6.84337 38.6209 6.81692 38.5878 6.79047 38.6539C6.73262 38.6736 6.66987 38.6736 6.61195 38.6539L4.70769 38.3498C4.64818 38.3498 4.57544 38.3498 4.52916 38.2836C4.50729 38.1267 4.54248 37.9672 4.62834 37.834C4.62428 37.8211 4.62428 37.8073 4.62834 37.7944C4.68673 37.778 4.74848 37.778 4.80687 37.7944C5.46807 37.9068 6.16234 38.0787 6.84998 38.1845L6.94916 38.2241C7.06157 38.3101 7.1872 38.2241 7.31282 38.2704H7.93436C7.95948 38.2737 7.98282 38.2854 8.00048 38.3035Z" fill="#00BA67"/>
<path d="M13.4292 35.8174C13.2333 35.9978 13.028 36.1677 12.8143 36.3265C12.4308 36.6439 12.034 36.9877 11.6439 37.272L10.7315 37.9927C10.6077 38.0757 10.4963 38.1759 10.4009 38.2903H9.97108C9.9314 38.2109 10.0041 38.1845 10.0438 38.1514C10.348 37.8936 10.6653 37.6489 10.9695 37.3911C11.2736 37.1332 11.7762 36.796 12.1597 36.4786C12.4043 36.2736 12.6622 36.0885 12.9002 35.8769C12.9302 35.8524 12.9636 35.8323 12.9994 35.8174H13.4292Z" fill="#00C76D"/>
<path d="M0.0925293 33.1132C0.44958 33.1132 0.793404 33.2256 1.14384 33.2785L1.60669 33.3578C1.71248 33.3578 1.81827 33.3578 1.79182 33.5429C1.79182 33.8934 1.79182 34.2438 1.79182 34.5943C1.69925 34.5546 1.73231 34.4686 1.7257 34.4025C1.7257 34.0521 1.79182 34.0785 1.3951 34.0058L0.396683 33.8339C0.341725 33.8325 0.288569 33.814 0.244606 33.781C0.171336 33.5641 0.120379 33.3403 0.0925293 33.1132Z" fill="#00A55C"/>
<path d="M0.244751 33.781C0.522596 33.8089 0.798571 33.8531 1.07126 33.9132C1.26962 33.9132 1.46137 33.986 1.65973 34.019C1.74569 34.019 1.75891 34.0653 1.75891 34.1314C1.73898 34.285 1.73898 34.4406 1.75891 34.5943L1.79197 34.9315C1.69853 34.8567 1.58655 34.8088 1.46798 34.7926C1.2035 34.7331 0.932406 34.6869 0.661312 34.6472C0.610172 34.6418 0.560669 34.6261 0.515845 34.6009C0.3964 34.3381 0.305514 34.0632 0.244751 33.781Z" fill="#009E59"/>
<path d="M4.54913 38.2375C4.80699 38.3102 5.07148 38.3367 5.33596 38.3896C5.82525 38.4888 6.31454 38.5417 6.79723 38.6673L6.63854 39.0838L5.82525 38.9516L4.44333 38.7202C4.43201 38.6953 4.42615 38.6682 4.42615 38.6408C4.42615 38.6135 4.43201 38.5864 4.44333 38.5615C4.45644 38.4517 4.45644 38.3407 4.44333 38.2309C4.45057 38.2241 4.45913 38.2189 4.46847 38.2155C4.47781 38.2121 4.48775 38.2107 4.49766 38.2113C4.50757 38.2119 4.51726 38.2146 4.5261 38.2191C4.53496 38.2235 4.54279 38.2298 4.54913 38.2375Z" fill="#00B966"/>
<path d="M11.6438 38.2902H11.2405C11.2405 38.1911 11.3066 38.1646 11.3529 38.1249L12.715 37.0273C13.2109 36.6306 13.72 36.2339 14.2159 35.8306H14.6391C14.6787 35.9231 14.5994 35.9562 14.5531 35.9959L11.8223 38.1712C11.7694 38.22 11.7091 38.2601 11.6438 38.2902Z" fill="#00DD78"/>
<path d="M14.5796 43.5139H14.9763C15.016 43.6131 14.93 43.6462 14.8837 43.6991C14.3481 44.2346 13.806 44.7702 13.2704 45.3124C13.039 45.5504 12.7943 45.7686 12.5497 45.9736H12.1265C12.0868 45.9141 12.1265 45.881 12.1728 45.848C12.7811 45.2793 13.3563 44.671 13.9514 44.0826C14.1101 43.9305 14.2688 43.7718 14.4209 43.6131C14.4678 43.5712 14.5214 43.5377 14.5796 43.5139Z" fill="#00BC68"/>
<path d="M13.2241 42.1452C13.4652 41.894 13.7213 41.6577 13.9911 41.4377C14.2027 41.2327 14.4341 41.0476 14.6523 40.8558L15.8689 39.7847C15.9054 39.7497 15.9366 39.7096 15.9615 39.6656H16.3847C16.3119 39.8376 16.14 39.9103 16.0144 40.0359C15.8888 40.1616 15.5449 40.4591 15.3069 40.6971L14.3482 41.4906L13.7399 42.0328C13.7068 42.0328 13.6671 42.0923 13.6671 42.1452H13.2241Z" fill="#00E37B"/>
<path d="M13.0655 38.2903H12.6423C12.6423 38.2109 12.6952 38.1779 12.7415 38.1382L15.0491 36.2868L15.6376 35.8174H16.0343C16.074 35.91 15.9946 35.943 15.9484 35.9827C15.2872 36.5116 14.6259 37.0472 13.9647 37.5828C13.654 37.8208 13.3498 38.039 13.0655 38.2903Z" fill="#00ED80"/>
<path d="M13.8853 45.9934H13.4952C13.4489 45.9009 13.5283 45.8678 13.5746 45.8215L14.5465 44.8694C14.9829 44.4528 15.4061 44.023 15.8359 43.5933L15.9218 43.5139H16.3186C16.3582 43.58 16.3186 43.6197 16.2723 43.6528C15.8888 44.023 15.5317 44.4065 15.1416 44.7636C14.7515 45.1206 14.3944 45.5041 14.0242 45.8744C13.9828 45.9194 13.9362 45.9594 13.8853 45.9934Z" fill="#00D674"/>
<path d="M12.9993 35.8174C12.838 35.9886 12.6584 36.1416 12.4637 36.2736C12.1067 36.5844 11.7232 36.8687 11.3397 37.153C10.9562 37.4373 10.4603 37.8671 10.0173 38.2176C9.99373 38.2356 9.97733 38.2613 9.97099 38.2903H9.60732C9.56765 38.1977 9.647 38.1647 9.69328 38.125L11.0157 37.0538C11.5314 36.6439 12.0406 36.2207 12.5629 35.8174H12.9993Z" fill="#00C16A"/>
<path d="M8.64194 38.2903H8.24522C8.20555 38.2176 8.24522 38.1846 8.30473 38.1581C8.8403 37.7151 9.3891 37.2853 9.93129 36.8357C10.3677 36.4853 10.7975 36.1348 11.2537 35.7976H11.6438C11.6438 35.8968 11.5645 35.9431 11.4983 35.996C10.533 36.763 9.59407 37.5366 8.64194 38.2903Z" fill="#00A55C"/>
<path d="M15.6376 35.8174C15.5714 35.9827 15.4061 36.0488 15.2805 36.148L12.8407 38.1316C12.7631 38.177 12.6956 38.2378 12.6423 38.3101H12.2786C12.239 38.2308 12.2786 38.1911 12.3514 38.158C12.8274 37.7745 13.2969 37.3844 13.7796 37.0142L15.2739 35.8372L15.6376 35.8174Z" fill="#00E87D"/>
<path d="M17.6079 39.6722C17.3486 39.9448 17.0725 40.2009 16.7814 40.4392C16.5764 40.6376 16.3516 40.8161 16.1202 41.0013L14.9367 42.046C14.897 42.046 14.8639 42.0989 14.8639 42.1518H14.5465C14.5003 42.0526 14.5862 42.0129 14.6391 41.9666L15.4987 41.2062L16.6558 40.188C16.8475 40.0161 17.0393 39.8375 17.2443 39.6722H17.6079Z" fill="#00F182"/>
<path d="M8.76086 42.1452H8.36414C8.36414 42.0394 8.4567 41.9931 8.51621 41.9402C8.93938 41.5765 9.34272 41.1996 9.76589 40.836C10.1891 40.4723 10.5924 40.0888 11.0222 39.7318L11.1214 39.6656H11.485C11.5247 39.7252 11.485 39.7582 11.4453 39.7913L9.87168 41.1666C9.50141 41.4972 9.13774 41.8278 8.76086 42.1452Z" fill="#017F49"/>
<path d="M12.5629 45.9934C12.6007 45.9091 12.66 45.8361 12.7348 45.7818C13.4886 45.1206 14.1828 44.3404 14.9168 43.6263C14.9498 43.6263 14.9895 43.5668 14.9895 43.5139H15.3796C15.4193 43.5734 15.3796 43.6065 15.3399 43.6395C14.5597 44.3999 13.7927 45.1669 13.0257 45.9339C13.0046 45.9573 12.98 45.9773 12.953 45.9934H12.5629Z" fill="#00C46C"/>
<path d="M7.3063 38.2903H7.01537C6.96909 38.2903 6.94925 38.2903 6.96908 38.2308C6.96611 38.1987 6.97193 38.1663 6.98595 38.1372C6.9999 38.1081 7.02152 38.0833 7.04843 38.0655C7.11296 38.0545 7.1728 38.0246 7.22034 37.9795L9.80565 35.9034L9.94451 35.8108H10.3082C10.3478 35.8967 10.2619 35.9232 10.2222 35.9563C9.73953 36.353 9.25685 36.7365 8.77417 37.12L7.45176 38.1779L7.3063 38.2903Z" fill="#01894E"/>
<path d="M17.1914 39.6723C17.1054 39.8574 16.9203 39.9368 16.788 40.069C16.6558 40.2013 16.3715 40.4393 16.1599 40.6244C15.7499 40.9815 15.3334 41.3319 14.9433 41.7022C14.7912 41.8411 14.5862 41.9468 14.4936 42.1518H14.0969C14.3171 41.9176 14.5512 41.6968 14.7978 41.4906C15.0094 41.2856 15.2408 41.1005 15.459 40.9021L16.7021 39.8112C16.7509 39.7658 16.7913 39.712 16.8211 39.6525L17.1914 39.6723Z" fill="#00EE80"/>
<path d="M14.2158 35.8175C14.1298 35.996 13.9447 36.0754 13.7992 36.1944C13.2769 36.6242 12.7479 37.0407 12.219 37.4639L11.2404 38.2309C11.2213 38.2462 11.2075 38.267 11.2007 38.2904H10.837C11.0402 38.0915 11.2615 37.9122 11.4982 37.7548C12.0272 37.3184 12.5694 36.8952 13.105 36.4324L13.7662 35.9299C13.8191 35.8902 13.872 35.8572 13.8852 35.7844L14.2158 35.8175Z" fill="#00D675"/>
<path d="M8.76099 42.1452C8.82711 41.9997 8.96596 41.9336 9.07175 41.8278C9.17755 41.722 9.49492 41.4641 9.73296 41.279C10.1363 40.9219 10.5462 40.5715 10.943 40.2144C11.1215 40.0558 11.2934 39.8905 11.4719 39.745C11.4846 39.7361 11.4949 39.7242 11.5019 39.7103C11.5088 39.6965 11.5121 39.6811 11.5116 39.6656H11.8753C11.9149 39.7252 11.8753 39.7582 11.8356 39.7913C11.3066 40.2475 10.7909 40.7104 10.2685 41.1666L9.38913 41.9468C9.30754 42.0242 9.21649 42.0908 9.11804 42.1452H8.76099Z" fill="#01894E"/>
<path d="M6.14931 41.5368V41.3583C6.14931 41.2856 6.14931 41.2128 6.14931 41.1467C6.14931 41.0806 6.26833 41.1071 6.32123 41.0674L7.93457 39.6722H8.41725C8.45692 39.7516 8.41725 39.7913 8.34452 39.8309C7.68331 40.3797 7.09484 40.9484 6.45347 41.4906C6.39396 41.5435 6.34767 41.603 6.28817 41.6492C6.22866 41.6955 6.18899 41.722 6.13609 41.6492C6.13053 41.6113 6.13509 41.5725 6.14931 41.5368Z" fill="#013C28"/>
<path d="M11.6439 38.2903C11.8378 38.0944 12.0479 37.9152 12.2721 37.7547L13.7267 36.5844L14.5202 35.9628C14.5731 35.9232 14.6326 35.8901 14.6392 35.8174H15.0028C15.0028 35.9298 14.9169 35.9695 14.8508 36.0224C14.4011 36.3926 13.9383 36.7497 13.4821 37.12L12.1597 38.1977L12.0208 38.2903H11.6439Z" fill="#00E17A"/>
<path d="M4.72754 41.8211C4.88294 41.8047 5.04005 41.8182 5.19038 41.8608C5.42842 41.9005 5.66645 41.9666 5.9111 41.993C6.15574 42.0195 6.14913 42.0592 6.12268 42.2311C6.11977 42.253 6.11977 42.2753 6.12268 42.2972L6.16235 42.6939C6.09623 42.7468 6.03011 42.727 5.95738 42.6939L5.29618 42.5683C5.21296 42.555 5.12814 42.555 5.04492 42.5683C4.90919 42.333 4.80261 42.0822 4.72754 41.8211Z" fill="#009F59"/>
<path d="M14.5795 43.5139L14.4605 43.6462L12.3381 45.7752C12.2653 45.848 12.1463 45.8744 12.1265 45.9934H11.7628C11.7628 45.9207 11.8091 45.8876 11.8488 45.848C12.219 45.4711 12.6092 45.1074 12.9794 44.7305C13.3497 44.3536 13.7398 44.0098 14.0836 43.6395C14.1213 43.5968 14.166 43.5611 14.2159 43.5338L14.5795 43.5139Z" fill="#00B363"/>
<path d="M12.5629 35.8174C12.477 35.9827 12.305 36.062 12.1728 36.1744C11.6835 36.5778 11.181 36.9745 10.6851 37.3712L9.71313 38.1448C9.66023 38.1845 9.60734 38.2176 9.59411 38.2903H9.2569C9.21722 38.2043 9.2569 38.1779 9.33624 38.1382L11.1413 36.6968C11.5116 36.3992 11.8819 36.1017 12.2588 35.8174H12.5629Z" fill="#00BA67"/>
<path d="M11.3661 42.1452C11.5976 41.9081 11.8451 41.6872 12.1066 41.484C12.3381 41.2658 12.5893 41.0608 12.8274 40.8228C13.2241 40.4723 13.6142 40.1153 14.0109 39.7714C14.043 39.7408 14.0698 39.7051 14.0903 39.6656H14.4605C14.5002 39.7516 14.4605 39.7913 14.3812 39.8243C13.8125 40.2872 13.2704 40.7831 12.7149 41.2658C12.4174 41.5236 12.1199 41.7815 11.8355 42.0526C11.793 42.0887 11.7464 42.1197 11.6967 42.1452H11.3661Z" fill="#00C46B"/>
<path d="M13.6406 39.6722C13.5811 39.8177 13.4422 39.8772 13.3364 39.9764C13.0257 40.2673 12.6752 40.545 12.3777 40.8227L11.1809 41.8807C11.0733 41.952 10.9812 42.0442 10.9098 42.1518H10.5792C10.5792 42.0856 10.6189 42.0526 10.6586 42.0195C11.3198 41.4707 11.9215 40.9021 12.5562 40.3467C12.8075 40.1285 13.0654 39.9103 13.31 39.6855L13.6406 39.6722Z" fill="#00B263"/>
<path d="M12.7613 43.5139H13.0919C13.0919 43.58 13.0588 43.6131 13.0191 43.6528L11.5711 45.1074C11.3155 45.341 11.0727 45.5882 10.8438 45.848C10.7912 45.9018 10.7337 45.9505 10.6719 45.9934H10.3082C10.2685 45.9207 10.3082 45.881 10.3677 45.8414C11.1413 45.114 11.8819 44.347 12.6356 43.5999C12.6731 43.5653 12.7155 43.5363 12.7613 43.5139Z" fill="#009152"/>
<path d="M12.153 39.6722H12.5167C12.5563 39.7516 12.5167 39.7913 12.4439 39.8309C12.246 40.0178 12.0385 40.1943 11.8224 40.3599C11.4124 40.6971 11.0356 41.0674 10.6322 41.4112C10.3413 41.6559 10.0768 41.9336 9.75944 42.1518H9.42883C9.42883 42.079 9.46851 42.0394 9.51479 42.0063C9.98424 41.6096 10.4339 41.193 10.8967 40.7897L12.153 39.6722Z" fill="#009856"/>
<path d="M8.64197 38.2904C8.7147 38.1251 8.88661 38.0524 9.01885 37.9466C9.55443 37.5036 10.0966 37.0804 10.6322 36.6242L11.4389 35.963C11.5116 35.9035 11.5711 35.8308 11.6372 35.7646H11.9744C12.0141 35.8506 11.9282 35.8771 11.8885 35.9101C11.4256 36.2936 10.9496 36.6573 10.4801 37.0342L8.97257 38.2376L8.64197 38.2904Z" fill="#00AF61"/>
<path d="M8.87998 43.5139H9.36266C9.40895 43.58 9.36266 43.6197 9.31638 43.6528C8.89982 44.0627 8.50971 44.4991 8.0667 44.8826C7.93446 45.0016 7.80883 45.1339 7.6832 45.2661C7.55757 45.3983 7.63031 45.3388 7.57741 45.3455C7.51625 45.334 7.45859 45.3082 7.4092 45.2703C7.35981 45.2324 7.32007 45.1834 7.29309 45.1273C7.30817 45.0598 7.34837 45.0007 7.4055 44.962C7.89479 44.5322 8.32457 44.0561 8.79403 43.5999L8.87998 43.5139Z" fill="#013C28"/>
<path d="M0.535645 34.601C0.834377 34.6181 1.13093 34.6624 1.42166 34.7332C1.501 34.7332 1.58035 34.7729 1.65969 34.7795C1.73904 34.7861 1.78532 34.8522 1.81177 34.9316L1.90434 35.5399C1.85003 35.553 1.79335 35.553 1.73904 35.5399C1.46663 35.5067 1.19702 35.4537 0.932368 35.3812C0.773176 35.1357 0.640208 34.8742 0.535645 34.601Z" fill="#009655"/>
<path d="M7.57739 45.3322C7.75592 45.1405 7.94106 44.962 8.1328 44.7834C8.54275 44.3933 8.93947 43.9834 9.3362 43.58C9.3362 43.58 9.3362 43.5338 9.3362 43.5139H9.76598C9.80565 43.58 9.76598 43.6197 9.71308 43.6528C9.32297 44.0495 8.93286 44.4528 8.52292 44.8297C8.351 44.9818 8.19231 45.1537 8.02701 45.3124C7.95626 45.3974 7.86535 45.4633 7.76253 45.5041C7.69641 45.4777 7.59723 45.4512 7.57739 45.3322Z" fill="#01442C"/>
<path d="M6.15593 41.6559C6.21544 41.6559 6.25511 41.6559 6.30139 41.5898L7.80234 40.2673L8.34452 39.7847C8.38419 39.7516 8.42387 39.7252 8.42387 39.6656H8.82059C8.82059 39.7384 8.77431 39.7714 8.72802 39.8111C8.01392 40.4393 7.29321 41.0674 6.59232 41.7154L6.3609 41.9071C6.34016 41.9262 6.31302 41.9368 6.28486 41.9368C6.2567 41.9368 6.22957 41.9262 6.20883 41.9071C6.20049 41.9141 6.18995 41.918 6.17907 41.918C6.16819 41.918 6.15765 41.9141 6.14932 41.9071C6.12722 41.8245 6.12951 41.7372 6.15593 41.6559Z" fill="#01432C"/>
<path d="M12.1529 39.6722C12.0736 39.8574 11.8884 39.9367 11.7562 40.069C11.5248 40.2938 11.2801 40.4987 11.0355 40.7302C10.6322 41.0872 10.2222 41.4377 9.81888 41.8013C9.67487 41.9091 9.54395 42.0334 9.42877 42.1716H9.09155C9.29653 41.9865 9.49489 41.7947 9.70647 41.6162C9.91806 41.4377 10.1363 41.2393 10.3677 41.0542L11.5645 39.9962C11.6636 39.9037 11.8025 39.8375 11.862 39.6921L12.1529 39.6722Z" fill="#009152"/>
<path d="M7.30627 38.2903C7.37239 38.1514 7.51786 38.0853 7.63026 37.9927L10.2751 35.8967C10.2908 35.8894 10.3044 35.8783 10.3148 35.8645C10.3251 35.8506 10.3319 35.8345 10.3346 35.8174H10.6652C10.6652 35.91 10.5991 35.9496 10.5396 35.9893L8.55595 37.5497C8.24518 37.7944 7.94764 38.0523 7.63688 38.2903H7.30627Z" fill="#009152"/>
<path d="M6.61206 42.0857C6.81703 42.0262 6.93605 41.8477 7.08813 41.722C7.5025 41.365 7.91245 41.0013 8.31797 40.6311C8.63535 40.3533 8.94611 40.0822 9.25688 39.7979C9.29966 39.7554 9.34872 39.7198 9.40234 39.6921H9.7065C9.73956 39.8178 9.63377 39.8574 9.56764 39.9169C9.29655 40.1418 9.03868 40.3798 8.7742 40.6178L7.16747 42.0394C7.1198 42.0911 7.05857 42.1283 6.9908 42.1471C6.92302 42.1658 6.85142 42.1651 6.78397 42.1452C6.71785 42.1121 6.65834 42.1254 6.61206 42.0857Z" fill="#015735"/>
<path d="M11.1214 39.6722C10.9231 39.8971 10.6718 40.0756 10.4602 40.2805C10.2486 40.4855 10.0106 40.6707 9.79901 40.8624C9.47502 41.1467 9.1378 41.4244 8.83365 41.722C8.66537 41.8494 8.51032 41.9934 8.3708 42.1518H8.06665C8.06665 42.079 8.10632 42.046 8.14599 42.0063L9.69983 40.631C10.0304 40.3467 10.328 40.0359 10.6784 39.778C10.7263 39.739 10.7772 39.7036 10.8305 39.6722H11.1214Z" fill="#017745"/>
<path d="M7.63696 38.2903C7.63696 38.2176 7.70969 38.1845 7.75598 38.1448L9.07839 37.1067L10.3281 36.1149C10.454 36.0321 10.5675 35.932 10.6653 35.8174H10.9959C10.9959 35.8901 10.9496 35.9232 10.9099 35.9628C10.4471 36.3397 9.97763 36.7034 9.50817 37.0604C9.03872 37.4175 8.54281 37.8274 8.06675 38.2109C8.02906 38.2435 7.98674 38.2703 7.94112 38.2903H7.63696Z" fill="#009856"/>
<path d="M11.8488 43.5139H12.1265C12.1661 43.58 12.1265 43.6197 12.0736 43.6528C11.4124 44.314 10.804 44.9752 10.1495 45.5703L9.69984 45.9934H9.39568C9.35601 45.9405 9.39568 45.9075 9.39568 45.881C9.79902 45.4975 10.1693 45.0876 10.5726 44.7041C10.976 44.3206 11.2867 44.0429 11.6438 43.6528C11.7028 43.594 11.7723 43.5468 11.8488 43.5139Z" fill="#017A47"/>
<path d="M9.91801 35.8173C9.84528 35.9628 9.6932 36.0289 9.58079 36.1215C8.91959 36.6901 8.17904 37.2455 7.47816 37.8076L7.1674 38.0588C7.12772 38.0588 7.08805 38.1382 7.03516 38.0588C7.04078 37.8954 7.10676 37.74 7.22029 37.6224C7.48676 37.4515 7.73888 37.2591 7.97407 37.0472C8.40385 36.71 8.82041 36.386 9.2568 36.0289C9.3626 35.9496 9.44855 35.8306 9.58079 35.7909L9.91801 35.8173Z" fill="#01814A"/>
<path d="M9.7594 42.1452C9.97098 41.9006 10.2421 41.722 10.4669 41.484C10.6917 41.246 10.8967 41.1203 11.1281 40.9286C11.5116 40.5649 11.9215 40.2674 12.3183 39.9103C12.4163 39.8477 12.4943 39.7581 12.5431 39.6525H12.8472C12.8472 39.7186 12.8142 39.7516 12.7745 39.7913L11.4521 40.9484L10.3082 41.9601L10.1032 42.132L9.7594 42.1452Z" fill="#00A15A"/>
<path d="M10.9431 43.5139H11.2737C11.2737 43.5933 11.2737 43.6395 11.2009 43.6858C10.91 43.9768 10.6323 44.2941 10.3149 44.5586C9.83224 44.9553 9.42229 45.4314 8.99251 45.881C8.90655 45.967 8.82059 45.967 8.64868 45.881C8.68789 45.7665 8.76188 45.6671 8.86027 45.5967C9.15781 45.3256 9.4289 45.0215 9.72645 44.7504C10.024 44.4793 10.3546 44.1288 10.672 43.8247C10.7532 43.7135 10.8439 43.6095 10.9431 43.5139Z" fill="#01643C"/>
<path d="M12.9398 45.9934C12.9398 45.9273 13.0059 45.8943 13.0456 45.848L14.4936 44.3999C14.7647 44.1288 15.0424 43.871 15.3202 43.6065C15.334 43.5952 15.3453 43.5811 15.3533 43.5652C15.3612 43.5492 15.3657 43.5317 15.3664 43.5139H15.6706C15.7169 43.6065 15.6375 43.6395 15.5912 43.6858L14.811 44.4462C14.3945 44.8562 13.9713 45.2727 13.5614 45.6893C13.4621 45.7973 13.3561 45.8989 13.244 45.9934H12.9398Z" fill="#00CB6F"/>
<path d="M12.7611 43.5139L12.2983 43.99C11.8421 44.4528 11.3792 44.9091 10.923 45.3653C10.7511 45.5372 10.5725 45.6959 10.4006 45.8612C10.361 45.9009 10.3081 45.9273 10.3081 45.9934H10.0039C10.0039 45.8876 10.0634 45.8414 10.1229 45.7818C10.718 45.2264 11.2866 44.6446 11.8619 44.0693L12.2983 43.6395C12.3436 43.5906 12.3973 43.5503 12.457 43.5205L12.7611 43.5139Z" fill="#01894E"/>
<path d="M7.93445 38.2902C8.15767 38.0727 8.3963 37.8716 8.64855 37.6886C9.0585 37.3579 9.46844 37.0273 9.89161 36.71C10.3148 36.3926 10.5198 36.1942 10.8437 35.9562C10.8904 35.9194 10.9326 35.8772 10.9694 35.8306H11.2405C11.1744 35.9893 11.0157 36.0422 10.9033 36.1347C10.2421 36.6637 9.58085 37.1794 8.9527 37.7018L8.2915 38.2175C8.27325 38.2257 8.25751 38.2385 8.24588 38.2549C8.23424 38.2711 8.22716 38.2902 8.22538 38.3101H8.00057L7.93445 38.2902Z" fill="#009F59"/>
<path d="M10.6718 45.9934C10.7048 45.8678 10.8238 45.8149 10.9032 45.729C11.2536 45.3587 11.6239 45.0082 11.9809 44.6446C12.338 44.2809 12.7215 43.8908 13.0918 43.5139H13.3959C13.4488 43.5866 13.3959 43.6263 13.3496 43.666C13.1116 43.904 12.8537 44.1355 12.5959 44.3272C12.4901 44.4198 12.4107 44.5388 12.3115 44.638C11.895 45.0545 11.4718 45.4645 11.0553 45.8876C11.022 45.9179 10.984 45.9425 10.9428 45.9604L10.6718 45.9934Z" fill="#009A57"/>
<path d="M2.79028 38.6011C2.88285 38.5283 2.98203 38.6011 3.0746 38.6011C3.35892 38.6011 3.63001 38.7135 3.91433 38.7201C3.954 38.7201 3.96723 38.7597 3.99368 38.7796C4.0896 38.9861 4.1306 39.2139 4.11269 39.4408C4.07302 39.5135 4.0069 39.5069 3.94078 39.5003C3.87466 39.4937 3.63662 39.4408 3.48455 39.4077C3.38666 39.3852 3.2849 39.3852 3.18701 39.4077C3.02278 39.1558 2.88958 38.885 2.79028 38.6011Z" fill="#009D58"/>
<path d="M12.4571 43.5139L11.7033 44.3007C11.3727 44.6379 11.0421 44.9619 10.6982 45.3057L10.1164 45.8545C10.0696 45.9002 10.0315 45.9539 10.004 46.0132H9.69983C9.69983 45.9405 9.76595 45.9008 9.81223 45.8612C10.5792 45.1404 11.2801 44.3933 12.014 43.6395C12.0603 43.5998 12.1198 43.5602 12.1264 43.4874L12.4571 43.5139Z" fill="#01824B"/>
<path d="M15.5185 39.6723C15.4458 39.8442 15.2739 39.917 15.1548 40.0426C15.0358 40.1682 14.7317 40.4063 14.4936 40.5914C14.0837 40.9484 13.6737 41.2989 13.277 41.6625C13.0931 41.8101 12.9228 41.9739 12.7679 42.1518H12.4637C12.4637 42.0328 12.5629 41.9865 12.6357 41.9204L14.3879 40.3732C14.6325 40.1616 14.8705 39.9434 15.1152 39.712C15.1463 39.6839 15.1821 39.6615 15.221 39.6459L15.5185 39.6723Z" fill="#00D775"/>
<path d="M11.8487 43.5139C11.6107 43.7784 11.3528 44.0297 11.095 44.2743C10.8371 44.5189 10.771 44.6115 10.5991 44.7702C10.4271 44.9289 10.2156 45.1405 10.0304 45.3256C9.84528 45.5108 9.71304 45.643 9.56758 45.8149C9.50807 45.8744 9.40228 45.8876 9.39566 45.9934C9.27334 46.0166 9.14771 46.0166 9.02539 45.9934C9.48162 45.5438 9.92463 45.0744 10.4073 44.671C10.652 44.4594 10.8702 44.2148 11.0685 44.0098C11.2103 43.8604 11.3604 43.7191 11.5181 43.5866L11.8487 43.5139Z" fill="#017343"/>
<path d="M14.216 43.5139C14.0845 43.6849 13.9385 43.8442 13.7796 43.99C13.6077 44.1619 13.4225 44.3206 13.2638 44.4991C13.1157 44.6616 12.9589 44.8161 12.7944 44.962C12.4439 45.2992 12.0935 45.6232 11.7629 45.9934H11.4587C11.4587 45.9207 11.505 45.8876 11.5447 45.848C11.9613 45.4446 12.3712 45.0281 12.7745 44.6247C13.1779 44.2214 13.5283 43.8776 13.9118 43.5139H14.216Z" fill="#00AC60"/>
<path d="M13.8853 43.5139C13.7737 43.6848 13.6353 43.8367 13.4753 43.9635C13.2902 44.1553 13.1051 44.3404 12.9133 44.5256L12.4108 45.0082C12.2389 45.1802 12.0736 45.3653 11.9017 45.5372C11.7298 45.7091 11.5777 45.8281 11.4322 45.9934H11.2405C11.1942 45.9339 11.2405 45.8876 11.2735 45.848C12.0207 45.1471 12.7282 44.4065 13.4555 43.6858C13.515 43.6161 13.5867 43.5579 13.6671 43.5139H13.8853Z" fill="#00A65C"/>
<path d="M9.39571 39.6722C9.14187 39.9285 8.87481 40.1713 8.59565 40.3996C8.37084 40.6178 8.12619 40.8161 7.89477 41.0211L6.75089 42.046C6.69799 42.0989 6.65171 42.046 6.59879 42.046C6.5459 42.046 6.53267 42.046 6.50622 42.046C6.47978 42.046 6.50622 41.9336 6.56573 41.8939L8.26505 40.393C8.50969 40.1748 8.74773 39.9566 9.0056 39.7317L9.12461 39.6722H9.39571Z" fill="#015032"/>
<path d="M7.54429 42.1451H7.27319C7.27319 42.079 7.27319 42.0459 7.34593 42.0062L8.44353 40.9946L9.58741 39.983L9.97091 39.6392H10.3015C10.3015 39.6987 10.3015 39.7317 10.2354 39.7647C9.5279 40.3796 8.82702 41.0079 8.11292 41.6228C7.9344 41.8145 7.74926 41.993 7.54429 42.1451Z" fill="#01623B"/>
<path d="M5.03186 42.5683C5.03186 42.4757 5.12443 42.5154 5.17733 42.522L6.18236 42.6939L6.29476 43.3551C6.22864 43.4147 6.15591 43.3551 6.08318 43.3551C5.86649 43.3029 5.64481 43.2741 5.42197 43.2692C5.2704 43.0482 5.1398 42.8136 5.03186 42.5683Z" fill="#009A57"/>
<path d="M13.2241 45.9934C13.2241 45.9273 13.2902 45.8942 13.3299 45.8479L14.5796 44.5982L15.5714 43.6395C15.6111 43.5998 15.6706 43.5668 15.6706 43.494H15.9417C15.9417 43.5469 15.9086 43.5734 15.8756 43.6064C15.5317 43.9502 15.2143 44.2676 14.8375 44.6445L13.6142 45.8413C13.5746 45.881 13.5217 45.9074 13.5217 45.9735L13.2241 45.9934Z" fill="#00D071"/>
<path d="M9.12451 39.6723C8.95445 39.8493 8.77096 40.0128 8.57571 40.1616C8.35751 40.3798 8.10625 40.5715 7.87483 40.7765L6.61193 41.9005C6.56565 41.9336 6.51936 41.9666 6.51936 42.0328C6.41139 42.0251 6.30695 41.991 6.21521 41.9336C6.38712 41.9336 6.46647 41.7749 6.57226 41.6757C7.11445 41.193 7.65664 40.7104 8.20544 40.2343C8.41702 40.0491 8.62199 39.8574 8.82697 39.6656L9.12451 39.6723Z" fill="#014A2F"/>
<path d="M16.5302 35.8174C16.4508 35.9761 16.2855 36.0488 16.1599 36.1546C15.4987 36.6836 14.8375 37.1993 14.216 37.715L13.6143 38.1911C13.5771 38.2157 13.5473 38.25 13.5283 38.2903H13.2572C13.2175 38.2109 13.2903 38.1845 13.3299 38.1514C13.6605 37.8737 13.9911 37.6092 14.3416 37.3382L16.1467 35.8901C16.1805 35.8606 16.2183 35.8362 16.2591 35.8174H16.5302Z" fill="#00F282"/>
<path d="M9.97096 39.6722C9.92659 39.7732 9.85287 39.8584 9.75938 39.9169C9.44861 40.2012 9.13123 40.4789 8.81385 40.75C8.49648 41.0211 8.04686 41.4112 7.66997 41.755C7.51346 41.8698 7.37137 42.0029 7.2468 42.1518C7.09175 42.1816 6.9324 42.1816 6.77734 42.1518C6.96909 42.198 7.0815 42.0592 7.20713 41.9534C7.5245 41.6757 7.86833 41.4112 8.16587 41.1137C8.46342 40.8161 8.82708 40.545 9.13123 40.2475L9.62052 39.8177C9.62052 39.7846 9.69987 39.7582 9.69987 39.6987L9.97096 39.6722Z" fill="#015D39"/>
<path d="M12.2456 42.1452H11.9745C11.9745 42.0129 12.0935 41.9534 12.1795 41.8807C12.8407 41.2724 13.568 40.6707 14.249 40.0491C14.3911 39.9124 14.5412 39.7843 14.6987 39.6656H14.9764C15.016 39.7318 14.9764 39.7714 14.9168 39.8045C14.3482 40.2938 13.7994 40.8095 13.2308 41.2988C12.9465 41.5435 12.6555 41.7881 12.3778 42.0526L12.2456 42.1452Z" fill="#00CE70"/>
<path d="M11.5512 43.5138C11.5116 43.6461 11.3859 43.7056 11.3066 43.7915C11.0685 44.0428 10.8107 44.2742 10.566 44.5122L9.18411 45.8677C9.13783 45.9074 9.09816 45.9669 9.02542 45.9735C8.83063 45.9562 8.63928 45.9117 8.45679 45.8413C8.52291 45.7421 8.5758 45.8413 8.63531 45.8413C8.68887 45.8806 8.75578 45.8971 8.82144 45.8871C8.88717 45.8772 8.94621 45.8417 8.98575 45.7884C9.33209 45.4013 9.70078 45.0348 10.09 44.6908C10.4668 44.3734 10.7908 44.0296 11.1479 43.6791C11.2012 43.631 11.2439 43.5725 11.2735 43.5072L11.5512 43.5138Z" fill="#016B3F"/>
<path d="M8.97266 38.2903C9.052 38.125 9.22391 38.0523 9.35615 37.9465C9.87851 37.5167 10.4075 37.1001 10.943 36.6769L11.9018 35.91C11.9349 35.91 11.9679 35.8637 11.9745 35.8174H12.2456C12.1729 35.9628 12.0274 36.029 11.9084 36.1215C11.2472 36.6836 10.5265 37.2258 9.83883 37.7745C9.66692 37.9134 9.49501 38.0523 9.31648 38.1845C9.28342 38.1845 9.24375 38.244 9.24375 38.2903H8.97266Z" fill="#00B363"/>
<path d="M7.54431 42.1452C7.72409 41.9434 7.921 41.7576 8.13278 41.5898C8.40388 41.3319 8.69481 41.1005 8.97251 40.8558L10.2222 39.7582C10.2521 39.7304 10.2787 39.6994 10.3015 39.6656H10.5792C10.5462 39.8111 10.4139 39.864 10.3214 39.9434L8.33776 41.6955C8.15698 41.8562 7.96715 42.0063 7.76912 42.1452H7.54431Z" fill="#016A3F"/>
<path d="M13.8853 45.9933C13.8874 45.9735 13.8939 45.9544 13.9042 45.9373C13.9145 45.9201 13.9283 45.9055 13.9448 45.8942C14.3216 45.5173 14.6919 45.1205 15.0886 44.7635C15.4854 44.4064 15.8689 44.0163 16.2458 43.6394C16.2854 43.6064 16.3383 43.5733 16.3383 43.5072H16.6094C16.6094 43.613 16.5499 43.6593 16.4904 43.7188C16.0672 44.1486 15.6374 44.5717 15.168 44.9883C14.6985 45.4049 14.5068 45.6495 14.1563 45.9867L13.8853 45.9933Z" fill="#00DE78"/>
<path d="M10.3677 43.5139H10.6718C10.6718 43.5866 10.6718 43.6263 10.6057 43.6726C9.90484 44.3801 9.1709 45.0545 8.48325 45.7686C8.46658 45.7892 8.44318 45.8033 8.41713 45.8083C8.34439 45.8083 8.25844 45.8083 8.19893 45.7091C8.13942 45.6099 8.2386 45.6099 8.27166 45.5703C8.64855 45.2 9.01221 44.8231 9.39571 44.4661C9.77921 44.109 10.0371 43.8313 10.3677 43.5139Z" fill="#015836"/>
<path d="M14.6985 39.6723C14.639 39.8178 14.5002 39.8773 14.401 39.9765C14.1563 40.2145 13.8919 40.4327 13.634 40.6377C13.2571 40.9683 12.867 41.2989 12.4967 41.6361C12.3069 41.7841 12.132 41.9501 11.9744 42.132H11.6967C11.9416 41.8803 12.1998 41.6418 12.4703 41.4179C12.6686 41.2327 12.8802 41.0741 13.072 40.8955C13.4819 40.5186 13.8985 40.1616 14.3283 39.8112C14.3811 39.7715 14.4473 39.7318 14.4605 39.6525L14.6985 39.6723Z" fill="#00C96E"/>
<path d="M7.48487 43.5139H8.14608C8.14608 43.5933 8.14608 43.6395 8.07334 43.6792L7.12121 44.638C7.10309 44.663 7.07922 44.6833 7.05158 44.6971C7.02395 44.7109 6.9934 44.7178 6.96252 44.7173C6.82684 44.6154 6.72905 44.4711 6.68481 44.3074C6.95591 44.0627 7.20717 43.7718 7.48487 43.5139Z" fill="#01291F"/>
<path d="M7.93439 39.6722C7.89438 39.7421 7.84036 39.8029 7.7757 39.8508C7.47154 40.1152 7.16739 40.393 6.86324 40.664L6.29459 41.1732C6.24831 41.2128 6.19541 41.2459 6.17558 41.1732C6.15574 41.1004 6.21525 40.869 6.20864 40.7169C6.20864 40.7169 6.36733 40.664 6.43345 40.6045C6.75744 40.3136 7.09466 40.0227 7.41865 39.7251L7.93439 39.6722Z" fill="#013424"/>
<path d="M13.277 39.6722C13.2304 39.7792 13.1519 39.8693 13.0522 39.9301L11.7959 41.0475L10.6454 42.0394L10.5463 42.1518H10.3082C10.3082 42.0195 10.4272 41.96 10.5132 41.8873L12.0736 40.5054C12.391 40.2277 12.7018 39.9367 13.0324 39.6722H13.277Z" fill="#00AB5F"/>
<path d="M10.3677 43.5139C10.3677 43.5866 10.3082 43.6197 10.2619 43.6594L8.32456 45.5703L8.21215 45.6959C8.16428 45.7156 8.11125 45.7192 8.06113 45.7061C8.01102 45.693 7.96652 45.6638 7.93445 45.6232C8.1262 45.405 8.33778 45.2132 8.54276 45.0082L9.39571 44.1685C9.6073 43.9569 9.81227 43.7453 10.0569 43.547L10.3677 43.5139Z" fill="#015032"/>
<path d="M12.0009 38.2904C12.0009 38.1978 12.1066 38.1714 12.1662 38.1251L14.1498 36.525L14.9168 35.8638C14.9402 35.8402 14.9602 35.8135 14.9763 35.7844H15.2474C15.2474 35.8373 15.2011 35.8638 15.1614 35.8968L13.3365 37.3449L12.3844 38.1515C12.3381 38.1912 12.2852 38.2243 12.2786 38.2904H12.0009Z" fill="#00E47C"/>
<path d="M8.87991 43.5139C8.87991 43.58 8.82702 43.6065 8.79396 43.6462C8.40385 44.0363 8.01374 44.433 7.61701 44.8165C7.50388 44.9076 7.39981 45.0094 7.30625 45.1206C7.18723 45.1206 7.14756 45.0281 7.10127 44.9421C7.05499 44.8562 7.16078 44.8033 7.21368 44.7504L8.45674 43.5139H8.87991Z" fill="#013524"/>
<path d="M9.60734 35.8174C9.37744 36.028 9.1369 36.2267 8.88663 36.4125C8.41056 36.8026 7.92127 37.1927 7.43198 37.5762C7.3857 37.6159 7.34602 37.6754 7.27329 37.6555C7.20056 37.6357 7.27329 37.6159 7.27329 37.596C7.33591 37.4373 7.42048 37.2882 7.52455 37.153C7.74308 37.0097 7.95083 36.8506 8.14608 36.6769C8.50974 36.3926 8.8668 36.0951 9.23707 35.8174H9.60734Z" fill="#017A47"/>
<path d="M8.43023 45.7885C8.84018 45.3521 9.25674 44.9223 9.69975 44.5189C9.97084 44.2743 10.2155 44.0098 10.4667 43.752C10.5395 43.6792 10.6387 43.6263 10.6717 43.5139H10.9428C10.8965 43.6395 10.7841 43.7057 10.6982 43.7916C10.1229 44.3735 9.53445 44.9487 8.94597 45.5174C8.84018 45.6232 8.73439 45.7356 8.63521 45.848C8.53603 45.9604 8.51619 45.7819 8.45668 45.848C8.45668 45.848 8.4104 45.8017 8.43023 45.7885Z" fill="#015D39"/>
<path d="M5.42847 43.2957C5.46814 43.1966 5.54087 43.2495 5.60699 43.2561C5.83841 43.2561 6.06322 43.3553 6.2682 43.3619L6.33432 43.5139C6.44672 43.7123 6.49962 43.9437 6.5988 44.1751C6.60518 44.1862 6.60855 44.1987 6.60855 44.2115C6.60855 44.2243 6.60518 44.2368 6.5988 44.2479C6.41112 44.2623 6.22243 44.2399 6.04339 44.1818C5.80877 43.9081 5.60272 43.6113 5.42847 43.2957Z" fill="#009554"/>
<path d="M12.2455 42.1452C12.4769 41.9081 12.7243 41.6872 12.986 41.484C13.2571 41.2328 13.5481 41.0013 13.8258 40.7567C14.1035 40.5121 14.5266 40.0955 14.8903 39.8046C14.93 39.7715 14.9696 39.7451 14.9763 39.6855H15.2474C15.0249 39.9133 14.7909 40.1295 14.5465 40.3335C14.3613 40.5187 14.1498 40.684 13.9514 40.8559L12.6951 41.927C12.6224 41.9932 12.5562 42.0725 12.4901 42.1452H12.2455Z" fill="#00D373"/>
<path d="M7.78894 42.1451C7.85506 42.0129 7.9873 41.9534 8.09309 41.8608C8.62867 41.4244 9.12457 40.9484 9.64031 40.4921L10.5792 39.6722H10.8239C10.7181 39.8375 10.5396 39.9103 10.4073 40.0359C10.1296 40.2872 9.8519 40.5384 9.56758 40.7831C9.16425 41.1335 8.78075 41.5038 8.36419 41.841C8.24835 41.9293 8.14586 42.034 8.06003 42.1518L7.78894 42.1451Z" fill="#017042"/>
<path d="M13.6407 43.5139L13.4952 43.6726C12.801 44.3338 12.1068 45.0545 11.4191 45.7554C11.3464 45.8281 11.2075 45.848 11.2141 45.9934H10.943C11.2934 45.5967 11.6968 45.2463 12.067 44.8628C12.4328 44.4764 12.8191 44.1101 13.2241 43.7652C13.2969 43.7057 13.4226 43.6462 13.416 43.5139H13.6407Z" fill="#009F59"/>
<path d="M16.2789 35.8174C16.1267 35.9841 15.9559 36.1327 15.7698 36.2604C15.2937 36.6505 14.811 37.0274 14.3283 37.4109L13.3431 38.1977C13.3101 38.1977 13.277 38.244 13.277 38.2903H13.0654C13.0654 38.1514 13.2373 38.0985 13.3365 38.0192L15.4921 36.3001L15.9483 35.9364C15.988 35.9033 16.0342 35.8703 16.0342 35.8174H16.2789Z" fill="#00F081"/>
<path d="M10.0635 43.5139C9.90777 43.7237 9.72799 43.9145 9.52791 44.0825L8.93944 44.671L8.02697 45.557C8.02697 45.557 7.9873 45.557 7.96747 45.557C7.94988 45.5655 7.93057 45.5698 7.91106 45.5695C7.89156 45.5692 7.87238 45.5644 7.85506 45.5554C7.83774 45.5464 7.82273 45.5335 7.81129 45.5177C7.79978 45.5019 7.79218 45.4837 7.78894 45.4644C8.03583 45.2562 8.27195 45.0355 8.49643 44.8032C8.90638 44.4263 9.28987 44.023 9.6866 43.6329C9.73288 43.5932 9.78578 43.5602 9.79239 43.4874L10.0635 43.5139Z" fill="#014B2F"/>
<path d="M0.932251 35.3877C1.25982 35.412 1.58489 35.4629 1.90422 35.5398L1.97695 35.8109C2.02523 35.8582 2.06082 35.9169 2.08046 35.9817C2.1001 36.0464 2.10316 36.115 2.08936 36.1811C2.05488 36.1959 2.01776 36.2035 1.98026 36.2035C1.94276 36.2035 1.90565 36.1959 1.87116 36.1811C1.70581 36.1638 1.54217 36.1327 1.38187 36.0886C1.20478 35.8736 1.05385 35.6383 0.932251 35.3877Z" fill="#018F52"/>
<path d="M13.0324 39.6722C12.9663 39.8111 12.8274 39.8838 12.7216 39.983C12.6158 40.0822 12.2984 40.3533 12.0604 40.5384C11.6372 40.9153 11.2075 41.279 10.7909 41.6625C10.607 41.8101 10.4366 41.9738 10.2818 42.1518H10.0702C10.1099 42.0327 10.2289 41.9798 10.3148 41.9005C10.6587 41.5831 11.0157 41.2393 11.3662 40.9616L12.6886 39.778C12.7227 39.7476 12.7516 39.7118 12.7745 39.6722H13.0324Z" fill="#00A75D"/>
<path d="M6.61208 44.2082C6.50794 43.9961 6.42383 43.7747 6.36084 43.547H7.48487C7.28949 43.791 7.06772 44.0128 6.82367 44.2082C6.77077 44.2545 6.72449 44.3272 6.63853 44.3338C6.62709 44.3287 6.61704 44.321 6.6092 44.3112C6.60134 44.3015 6.59589 44.29 6.59331 44.2778C6.59073 44.2655 6.59109 44.2528 6.59436 44.2407C6.59762 44.2286 6.6037 44.2175 6.61208 44.2082Z" fill="#01241C"/>
<path d="M9.21717 35.8174C9.21717 35.91 9.11138 35.9364 9.05187 35.9827C8.58903 36.3662 8.11957 36.7365 7.65012 37.1133C7.61243 37.1491 7.56317 37.1702 7.51126 37.1729C7.47159 37.0737 7.55761 37.0076 7.58406 36.9282C7.64959 36.7853 7.73409 36.6519 7.83532 36.5315C7.90144 36.5315 7.9345 36.5315 7.97417 36.4654L8.63538 35.9298C8.68847 35.883 8.74871 35.8451 8.81384 35.8174H9.21717Z" fill="#017042"/>
<path d="M3.18701 39.3549C3.22668 39.2491 3.31264 39.2954 3.37876 39.3086C3.58373 39.3086 3.78871 39.3879 3.99368 39.4342C4.02602 39.4439 4.06052 39.4439 4.09286 39.4342C4.17221 39.4871 4.15898 39.5863 4.19204 39.6656C4.2251 39.745 4.31767 39.9103 4.26478 40.0558C4.18759 40.0819 4.10392 40.0819 4.02674 40.0558L3.59696 39.983C3.43777 39.7892 3.3003 39.5786 3.18701 39.3549Z" fill="#009856"/>
<path d="M6.61195 44.2081L6.67146 44.3007C6.74565 44.4417 6.83431 44.5747 6.93594 44.6974C7.02745 44.7514 7.09403 44.8393 7.12108 44.942C7.17265 45.0113 7.2352 45.0716 7.30622 45.1206C7.38417 45.2057 7.47581 45.2772 7.57731 45.3322C7.63444 45.3993 7.70704 45.4515 7.78889 45.4842C7.83928 45.5302 7.90084 45.5621 7.96742 45.5768C8.03354 45.6561 8.12611 45.6628 8.21207 45.6958C8.27468 45.7465 8.35032 45.7786 8.43026 45.7884V45.8413C7.69342 45.5915 7.0254 45.1726 6.47971 44.6181C6.32136 44.4785 6.17737 44.3235 6.04993 44.1552C6.19441 44.1422 6.34006 44.1556 6.47971 44.1949L6.61195 44.2081Z" fill="#028E51"/>
<path d="M7.12117 44.9619C7.06828 44.8759 6.9691 44.8164 6.93604 44.7172C6.96169 44.7147 6.98642 44.7063 7.00824 44.6925C7.03006 44.6787 7.04837 44.6601 7.06166 44.6379L8.02041 43.6395C8.06511 43.6001 8.09916 43.55 8.11959 43.494H8.45681C8.39657 43.624 8.30301 43.7358 8.18571 43.818C7.83527 44.1552 7.52451 44.4792 7.16084 44.8429C7.14101 44.8759 7.1344 44.9156 7.12117 44.9619Z" fill="#012F22"/>
<path d="M14.1829 45.9934C14.1829 45.9273 14.2424 45.9009 14.2754 45.8612C14.6523 45.4843 15.0225 45.0942 15.4126 44.7305C15.8027 44.3669 16.1268 44.0297 16.4839 43.6858C16.5371 43.6378 16.5798 43.5792 16.6095 43.5139H16.7616C16.7616 43.6792 16.5764 43.752 16.4772 43.8577C16.259 44.0892 16.0342 44.3206 15.816 44.5189C15.4788 44.8363 15.1548 45.1802 14.8308 45.4843L14.4671 45.8546C14.4341 45.8876 14.3878 45.9141 14.3878 45.9736L14.1829 45.9934Z" fill="#00DE78"/>
<path d="M1.38196 36.0886C1.62004 36.094 1.85701 36.1227 2.08945 36.1746C2.13282 36.1858 2.17832 36.1858 2.22169 36.1746C2.26196 36.3597 2.26196 36.5514 2.22169 36.7366C2.18863 36.8358 2.30103 36.9416 2.22169 37.0408C1.90392 36.7589 1.6219 36.4391 1.38196 36.0886Z" fill="#018A4F"/>
<path d="M3.59692 39.9699C3.76222 39.8905 3.90769 39.9699 4.06638 40.0095H4.27135C4.29012 40.0245 4.31344 40.0327 4.33747 40.0327C4.36151 40.0327 4.38483 40.0245 4.40359 40.0095C4.43311 40.0632 4.44859 40.1235 4.44859 40.1848C4.44859 40.246 4.43311 40.3063 4.40359 40.36C4.4343 40.5347 4.45198 40.7115 4.45649 40.8889C4.13273 40.6197 3.84396 40.3109 3.59692 39.9699Z" fill="#019353"/>
<path d="M6.36743 39.9367L6.46 39.6722H7.15428C7.19395 39.7384 7.15428 39.778 7.10138 39.8111C6.88318 40.0095 6.66499 40.2078 6.44016 40.3996C6.39388 40.4392 6.33437 40.512 6.26164 40.4392C6.24487 40.2649 6.28178 40.0895 6.36743 39.9367Z" fill="#012A1F"/>
<path d="M6.27475 40.4525C6.47991 40.3239 6.66672 40.1682 6.83017 39.9896C6.94919 39.8905 7.09465 39.8243 7.15416 39.6656H7.45832C7.45832 39.7252 7.41203 39.7516 7.37236 39.7847L6.34748 40.6971C6.28136 40.7566 6.24169 40.7632 6.24169 40.6575C6.24169 40.5517 6.18879 40.5054 6.27475 40.4525Z" fill="#012E21"/>
<path d="M8.82039 35.8174C8.59558 36.0422 8.3311 36.2141 8.09306 36.4125L7.90793 36.5579C7.87487 36.5579 7.85503 36.5579 7.84842 36.5579C7.84769 36.5041 7.86065 36.451 7.88611 36.4036C7.91156 36.3562 7.94866 36.316 7.99388 36.2868L8.2782 35.8306L8.82039 35.8174Z" fill="#01673D"/>
<path d="M7.79562 17.3765C7.81506 17.3666 7.83661 17.3615 7.85843 17.3615C7.88025 17.3615 7.90181 17.3666 7.92125 17.3765C8.29152 17.4426 8.65518 17.5153 9.02546 17.5947C9.39573 17.674 9.89825 17.76 10.3479 17.8459C9.99743 18.6394 9.64699 19.4328 9.22382 20.1998L9.17753 20.2725C9.11565 20.2953 9.04767 20.2953 8.98578 20.2725L6.76414 19.8758C6.71025 19.882 6.6561 19.8678 6.61206 19.8361C7.00217 19.003 7.40551 18.1897 7.79562 17.3765Z" fill="#00FA86"/>
<path d="M8.37084 21.6215C8.04685 22.1835 7.70964 22.7389 7.36581 23.2811C6.83685 23.2084 6.30788 23.1026 5.78553 23.01L4.95241 22.8646C4.8929 22.8646 4.82678 22.8646 4.78711 22.7984L5.81859 21.1587C5.86183 21.1465 5.90759 21.1465 5.95083 21.1587L8.15926 21.5422C8.22538 21.5355 8.32456 21.5289 8.37084 21.6215Z" fill="#00F282"/>
<path d="M8.37082 21.6214C8.05344 21.5289 7.70962 21.5024 7.40546 21.4429C6.91617 21.3503 6.42691 21.2776 5.94423 21.1917C5.90118 21.1857 5.859 21.1746 5.8186 21.1586L6.61202 19.8362L8.11956 20.1073L9.19733 20.2924C8.94435 20.749 8.66849 21.1926 8.37082 21.6214Z" fill="#00F584"/>
<path d="M4.78718 22.7983L5.74593 22.957L7.26008 23.2281C7.28071 23.2276 7.30114 23.2321 7.31959 23.2413C7.33804 23.2505 7.35391 23.2642 7.36588 23.281C7.09478 23.7372 6.82369 24.1935 6.51953 24.6034C6.41652 24.5669 6.31024 24.5403 6.20216 24.5241C5.50128 24.3852 4.80701 24.2332 4.10614 24.1207C4.05582 24.1223 4.00659 24.1059 3.96729 24.0745L4.78718 22.7983Z" fill="#00EA7E"/>
<path d="M3.96723 24.0743C4.62844 24.1867 5.28964 24.3058 5.95085 24.4512C6.10293 24.4843 6.26161 24.5041 6.41369 24.5306C6.56577 24.557 6.55916 24.5306 6.57238 24.6298C6.38172 24.9533 6.17426 25.2668 5.95085 25.5687C5.62686 25.5356 5.28964 25.4629 4.9921 25.41L3.49778 25.1257C3.41844 25.1257 3.30603 25.1257 3.30603 25.0463L3.96723 24.0743Z" fill="#00E47C"/>
<path d="M3.30602 25.0464C3.70936 25.1654 4.12591 25.2051 4.53586 25.2844C4.94581 25.3638 5.39543 25.4365 5.82521 25.5092C5.84826 25.5095 5.87095 25.515 5.89157 25.5252C5.91219 25.5355 5.9302 25.5504 5.94423 25.5687C5.74103 25.8728 5.52256 26.1663 5.28963 26.4481C5.13342 26.4429 4.97824 26.4206 4.82679 26.382C4.16559 26.263 3.50438 26.1506 2.84318 26.025C2.76383 26.025 2.67788 26.025 2.63159 25.9258L3.30602 25.0464Z" fill="#00E07A"/>
<path d="M3.45148 29.1394L3.00186 29.8667C2.93574 29.913 2.86962 29.8667 2.79688 29.8667L0.700865 29.4964C0.634744 29.4964 0.555399 29.4964 0.522339 29.4039C0.624336 29.1331 0.74133 28.8682 0.872778 28.6104C0.895266 28.5989 0.920206 28.5928 0.94551 28.5928C0.970815 28.5928 0.995749 28.5989 1.01824 28.6104C1.75218 28.7559 2.49273 28.8683 3.22667 29.0071C3.30601 29.027 3.43164 29.0005 3.45148 29.1394Z" fill="#00C86E"/>
<path d="M2.64481 25.9523C2.94926 26.033 3.25841 26.0948 3.5705 26.1374L5.23012 26.4482C5.24932 26.4411 5.27043 26.4411 5.28963 26.4482C5.16005 26.6587 5.01877 26.8618 4.86646 27.0565C4.81084 27.0761 4.75016 27.0761 4.69454 27.0565L2.31421 26.6333C2.28389 26.6346 2.25369 26.6287 2.22611 26.6161C2.19852 26.6034 2.17433 26.5844 2.15552 26.5606L2.64481 25.9523Z" fill="#00DB77"/>
<path d="M3.4515 29.1392C3.4515 29.0863 3.38538 29.0863 3.3391 29.0797L1.28275 28.716L0.872803 28.6234C0.971917 28.4123 1.08685 28.2089 1.21663 28.0151C1.23609 28.0053 1.25762 28.0001 1.27944 28.0001C1.30127 28.0001 1.32279 28.0053 1.34226 28.0151L3.65647 28.4317C3.72921 28.4317 3.835 28.4317 3.85484 28.5507L3.4515 29.1392Z" fill="#00CE70"/>
<path d="M2.17537 26.5936L3.6763 26.8647L4.88631 27.1094C4.76607 27.3065 4.63125 27.4943 4.48297 27.6714C3.88128 27.5325 3.30603 27.4532 2.64482 27.3011C2.42663 27.2482 2.20182 27.2284 1.98362 27.1821C1.9175 27.1821 1.84477 27.1821 1.79187 27.1028C1.90584 26.923 2.03409 26.7528 2.17537 26.5936Z" fill="#00D875"/>
<path d="M0.522275 29.417C0.807623 29.4901 1.09679 29.5475 1.38845 29.5889C1.92403 29.6881 2.46622 29.774 3.00179 29.8666L2.64474 30.4948L0.44293 30.1046C0.391773 30.1044 0.342445 30.0856 0.304077 30.0517C0.355851 29.8336 0.428935 29.6209 0.522275 29.417Z" fill="#00C36B"/>
<path d="M1.81168 27.1094C2.15551 27.1821 2.47289 27.2218 2.84316 27.3143C3.21344 27.4069 3.45147 27.4268 3.75562 27.4797L4.41683 27.5987C4.41683 27.5987 4.46972 27.5987 4.47634 27.6516L4.14573 28.121C3.82174 28.121 3.48453 28.0152 3.1936 27.9623L1.71911 27.6978C1.62927 27.6938 1.54427 27.6561 1.48108 27.5921C1.57545 27.4209 1.68616 27.2592 1.81168 27.1094Z" fill="#00D473"/>
<path d="M1.48116 27.592C1.95722 27.7177 2.45313 27.7772 2.94242 27.8631L4.03341 28.0549C4.05646 28.0551 4.07915 28.0606 4.09976 28.071C4.12039 28.0812 4.13839 28.0961 4.15242 28.1144C4.06385 28.2647 3.96441 28.4084 3.85488 28.5442C3.70433 28.4648 3.53568 28.426 3.36559 28.4318C2.77051 28.3128 2.16881 28.2136 1.56711 28.1012L1.21667 28.0284C1.28471 27.8717 1.37368 27.7249 1.48116 27.592Z" fill="#00D172"/>
<path d="M0.0330811 31.5063V31.3807L0.0992016 30.9311C0.126728 30.9166 0.157363 30.9091 0.188464 30.9091C0.219566 30.9091 0.250201 30.9166 0.277727 30.9311L2.13571 31.2617C2.20183 31.2617 2.26795 31.2617 2.30763 31.341L2.10265 31.9559C2.06298 31.8105 1.93735 31.8634 1.85139 31.8435L0.0793655 31.5063H0.0330811Z" fill="#00B765"/>
<path d="M0.304239 30.0518L1.27621 30.2038C1.68616 30.27 2.0961 30.3426 2.49944 30.422C2.55895 30.422 2.63829 30.422 2.66474 30.4947C2.57878 30.6402 2.55234 30.8121 2.45315 30.9576L0.46954 30.5609C0.377319 30.5565 0.288099 30.5267 0.21167 30.4749C0.225617 30.3307 0.256691 30.1886 0.304239 30.0518Z" fill="#00BE69"/>
<path d="M0.185098 30.475C0.476028 30.5279 0.773568 30.5675 1.05789 30.6337C1.45461 30.7262 1.86456 30.7857 2.26789 30.8717C2.3274 30.8717 2.42658 30.8717 2.45303 30.9577L2.30095 31.3213L0.0925293 30.9312C0.109312 30.7766 0.140299 30.6239 0.185098 30.475Z" fill="#00BB67"/>
<path d="M11.4321 18.646L13.7199 19.0626L13.9447 19.1022C13.4223 20.213 12.933 21.3304 12.338 22.4082C12.338 22.4611 12.2784 22.514 12.2454 22.5669C12.0386 22.5495 11.8332 22.5186 11.6305 22.4744L9.87827 22.1569C9.80693 22.1543 9.73882 22.1262 9.68652 22.0776C10.0634 21.4164 10.4337 20.6957 10.7775 19.9882L11.4321 18.646Z" fill="#00FB86"/>
<path d="M9.68669 22.0709L11.8422 22.461C11.9818 22.4681 12.1187 22.5018 12.2456 22.5602C11.9745 23.0892 11.6703 23.5983 11.3728 24.1074C11.3066 24.1537 11.2471 24.1074 11.181 24.1074C10.4339 23.9818 9.69331 23.7901 8.93953 23.6776C8.88571 23.6749 8.83447 23.6538 8.79407 23.6181L9.68669 22.0709Z" fill="#00F684"/>
<path d="M6.36731 27.2879C6.64503 26.8582 6.93596 26.4284 7.24672 26.0184C7.27655 26.0038 7.30934 25.9962 7.3426 25.9962C7.37579 25.9962 7.40859 26.0038 7.43847 26.0184C8.19225 26.1573 8.95263 26.2829 9.70641 26.4284C9.77253 26.4284 9.85187 26.4284 9.88493 26.5143C9.63367 26.9177 9.3758 27.3144 9.11793 27.7111L9.01214 27.8566C8.80532 27.857 8.59981 27.8235 8.40383 27.7574C7.90132 27.6318 7.39219 27.5723 6.88967 27.4665L6.53261 27.4003C6.46649 27.3739 6.40037 27.3607 6.36731 27.2879Z" fill="#00EA7F"/>
<path d="M9.91801 26.5012C9.61386 26.4152 9.30309 26.3822 8.99233 26.3227L7.56412 26.0648L7.27319 26.0185L8.05341 24.8019C8.07418 24.7924 8.09672 24.7875 8.11953 24.7875C8.14235 24.7875 8.16489 24.7924 8.18566 24.8019C8.95265 24.9474 9.72626 25.073 10.4933 25.2251C10.566 25.2251 10.6652 25.2251 10.6652 25.3441C10.3941 25.721 10.156 26.1243 9.91801 26.5012Z" fill="#00F081"/>
<path d="M10.6387 25.3242C10.5329 25.1985 10.3743 25.2316 10.242 25.2052C9.69321 25.0928 9.15103 25.0068 8.60223 24.9076L8.02698 24.8018C8.26501 24.3985 8.52949 24.0084 8.79397 23.6249C9.25021 23.691 9.70644 23.7703 10.1627 23.8695L11.3727 24.1076C11.1479 24.5241 10.8966 24.9275 10.6387 25.3242Z" fill="#00F383"/>
<path d="M6.3673 27.288C6.64928 27.3765 6.93948 27.4363 7.23346 27.4665C7.79548 27.5723 8.3575 27.6913 8.91292 27.8037L9.0121 27.8434C8.76084 28.2203 8.52942 28.6236 8.2451 28.9806C7.66985 28.8881 7.10122 28.7757 6.52599 28.6765L5.7656 28.5443C5.69287 28.5443 5.61352 28.5443 5.57385 28.4385L6.3673 27.288Z" fill="#00E47C"/>
<path d="M5.57392 28.4318C5.86853 28.5163 6.16915 28.5782 6.47316 28.6169C6.99551 28.7161 7.52448 28.802 8.05344 28.8946C8.11956 28.8946 8.1989 28.8946 8.24519 28.974C7.99393 29.3178 7.76251 29.6814 7.49142 30.012C7.46424 30.0237 7.43501 30.0297 7.40546 30.0297C7.3759 30.0297 7.34668 30.0237 7.3195 30.012L5.02512 29.6219C4.93917 29.6219 4.83999 29.6219 4.7937 29.5029C5.03835 29.1393 5.2896 28.7888 5.57392 28.4318Z" fill="#00E07A"/>
<path d="M4.79377 29.5031C5.0049 29.5868 5.22818 29.636 5.45498 29.6485C5.99717 29.7609 6.53935 29.8469 7.08815 29.9461L7.51132 30.0188L6.79061 31.0238C6.72819 31.0436 6.66128 31.0436 6.59886 31.0238C5.83186 30.8916 5.07148 30.7593 4.31109 30.6139C4.24505 30.6106 4.18208 30.585 4.13257 30.5411C4.32895 30.1804 4.54987 29.8335 4.79377 29.5031Z" fill="#00DA76"/>
<path d="M4.11275 30.5343L6.24182 30.9244C6.42086 30.9409 6.59796 30.9741 6.77077 31.0236L6.24844 31.784C6.02558 31.7743 5.80417 31.7433 5.58723 31.6914L3.82182 31.3674C3.78945 31.3698 3.75698 31.3644 3.7271 31.3517C3.69721 31.3391 3.67076 31.3195 3.6499 31.2947C3.78717 31.0313 3.94179 30.7772 4.11275 30.5343Z" fill="#00D474"/>
<path d="M2.7572 33.2057C2.84968 32.9341 2.96013 32.6691 3.0878 32.4123C3.14285 32.3894 3.20468 32.3894 3.25972 32.4123C3.96059 32.5379 4.66147 32.6569 5.35574 32.7957C5.43508 32.7957 5.53426 32.7957 5.54749 32.928L5.12431 33.695C4.74082 33.6553 4.36393 33.5627 3.98043 33.5032C3.59693 33.4437 3.31923 33.3776 2.9754 33.3181C2.89606 33.2784 2.8101 33.2784 2.7572 33.2057Z" fill="#00CA6E"/>
<path d="M7.99392 36.267L7.84846 36.5381L7.61042 36.9348C7.58589 36.9476 7.55872 36.9543 7.53108 36.9543C7.50344 36.9543 7.47627 36.9476 7.45173 36.9348L5.28959 36.5712C5.21686 36.5712 5.13751 36.5712 5.11768 36.4455C5.1582 36.2792 5.21581 36.1174 5.28959 35.9628C5.30827 35.906 5.34265 35.8555 5.38877 35.8174L6.51282 36.0025L7.99392 36.267Z" fill="#00C86E"/>
<path d="M5.54745 32.9016C5.4086 32.7628 5.22346 32.7826 5.05155 32.7562C4.51597 32.6438 3.97378 32.5578 3.43159 32.4652L3.08777 32.3991C3.18034 32.1941 3.27291 31.9892 3.38531 31.7908C3.45795 31.7646 3.53749 31.7646 3.61012 31.7908C4.32422 31.9164 5.03832 32.0619 5.75242 32.1875C5.81193 32.1875 5.89789 32.1875 5.91111 32.2867L5.54745 32.9016Z" fill="#00CE70"/>
<path d="M2.75726 33.2057L4.24497 33.4768L5.05164 33.6289C5.0847 33.6289 5.11115 33.6289 5.12437 33.6685L4.84667 34.2306C4.8258 34.2434 4.80176 34.2502 4.77724 34.2502C4.75272 34.2502 4.72868 34.2434 4.70781 34.2306C4.04661 34.1115 3.33912 33.9991 2.65808 33.8735C2.6118 33.8735 2.56551 33.8735 2.53906 33.814C2.59207 33.6047 2.66514 33.4009 2.75726 33.2057Z" fill="#00C46C"/>
<path d="M5.91108 32.3C5.69774 32.2223 5.47567 32.1713 5.24987 32.1479C4.72752 32.0355 4.19856 31.9495 3.66959 31.8569L3.41833 31.804C3.50007 31.6274 3.59512 31.4572 3.70265 31.2949L5.20359 31.566L6.18217 31.7379C6.19552 31.7389 6.20845 31.743 6.21993 31.7499C6.23141 31.7568 6.24112 31.7663 6.24829 31.7776C6.12266 31.9495 6.04993 32.1413 5.91108 32.3Z" fill="#00D072"/>
<path d="M2.53914 33.8337L3.52434 33.999L4.84675 34.2305L4.62855 34.8123C4.58888 34.8454 4.54259 34.8123 4.50292 34.8123C3.84171 34.6867 3.21357 34.5941 2.5722 34.4619C2.51273 34.4651 2.45314 34.4651 2.39368 34.4619C2.42178 34.2483 2.4705 34.038 2.53914 33.8337Z" fill="#00C16A"/>
<path d="M2.36706 34.4422C2.36706 34.4422 2.41335 34.3893 2.46624 34.4025L4.48953 34.7794H4.60194L4.39696 35.3546C4.32384 35.3779 4.24528 35.3779 4.17215 35.3546C3.60352 35.2356 3.02827 35.1497 2.45963 35.0439H2.24805C2.27145 34.8404 2.31125 34.6392 2.36706 34.4422Z" fill="#00BC68"/>
<path d="M2.24809 35.0438C2.28115 35.0438 2.30098 34.9843 2.36049 34.9975L4.34411 35.3546H4.40361L4.2846 35.7711C4.29135 35.7957 4.29123 35.8216 4.28423 35.8461C4.27723 35.8706 4.26364 35.8927 4.24492 35.91C4.17946 35.9231 4.11203 35.9231 4.04656 35.91L2.47951 35.6257C2.43218 35.6105 2.38204 35.6062 2.33282 35.613C2.28359 35.6199 2.23655 35.6378 2.19519 35.6653C2.19709 35.4571 2.21477 35.2494 2.24809 35.0438Z" fill="#00B865"/>
<path d="M4.23836 35.9298C4.23836 35.8902 4.23836 35.8373 4.27803 35.8042H5.39546C5.38842 35.857 5.36793 35.9071 5.33596 35.9497C4.99874 36.2141 4.67475 36.472 4.32431 36.7431C4.27567 36.7844 4.22243 36.8199 4.16562 36.8489C4.10611 36.8489 4.05322 36.8886 4.03338 36.8092C4.02877 36.6732 4.04437 36.5373 4.07967 36.4059C4.09117 36.2363 4.14579 36.0725 4.23836 35.9298Z" fill="#012A1F"/>
<path d="M4.23836 35.9299C4.1886 36.0904 4.14885 36.2538 4.11934 36.4192C4.05983 36.4721 3.9871 36.4523 3.91437 36.4192L2.31425 36.1481C2.25898 36.146 2.20677 36.1222 2.16879 36.082C2.14622 36.0404 2.1344 35.9938 2.1344 35.9465C2.1344 35.8991 2.14622 35.8525 2.16879 35.8109V35.6853C2.16879 35.5795 2.24813 35.5663 2.36054 35.5861C2.95562 35.6985 3.55071 35.7977 4.14579 35.9035L4.23836 35.9299Z" fill="#00B464"/>
<path d="M2.17539 35.8108V36.0819C2.18614 36.0949 2.19202 36.1113 2.19202 36.1282C2.19202 36.1451 2.18614 36.1614 2.17539 36.1745V36.3067C2.1225 36.3067 2.1225 36.2141 2.08944 36.1745L1.98364 35.8108H2.17539Z" fill="#02241C"/>
<path d="M6.27487 40.4525C6.22859 40.512 6.27487 40.5914 6.24181 40.6575L5.42853 40.5253L4.4235 40.3533C4.44312 40.2329 4.44312 40.1101 4.4235 39.9897C4.33755 39.8839 4.38383 39.7583 4.37722 39.6393C4.37584 39.6202 4.37937 39.601 4.38747 39.5837C4.39557 39.5663 4.40798 39.5513 4.4235 39.54C4.64379 39.5731 4.86226 39.6172 5.07809 39.6723L6.29471 39.8905C6.31865 39.8851 6.3435 39.8851 6.36744 39.8905C6.36083 40.1087 6.27487 40.274 6.27487 40.4525Z" fill="#00AE61"/>
<path d="M2.1886 36.1746V36.082L3.96724 36.4126H4.11932C4.08978 36.5499 4.0699 36.6891 4.05981 36.8292C4.05981 36.9151 4.1127 37.0143 4.0003 37.0805L2.88286 36.8821C2.65753 36.8635 2.43541 36.8169 2.22166 36.7432C2.19521 36.6257 2.19521 36.5037 2.22166 36.3862C2.20843 36.3201 2.23488 36.2407 2.1886 36.1746Z" fill="#00B062"/>
<path d="M4.00029 37.087C4.05318 37.0076 4.00029 36.915 4.0598 36.8357C4.1193 36.9018 4.15236 36.8357 4.18542 36.8357L5.07144 36.1745C5.15078 36.115 5.21029 36.0092 5.33592 36.0158C5.30286 36.1745 5.19046 36.3133 5.15078 36.472C5.11111 36.6307 5.15078 36.6836 5.03838 36.7563C4.85848 36.8563 4.69187 36.9785 4.54247 37.12L4.13914 37.4374C4.13914 37.4704 4.05318 37.5101 4.0069 37.4704C3.96061 37.4308 4.0069 37.3911 4.0069 37.3448L4.00029 37.087Z" fill="#013424"/>
<path d="M4.00019 37.2919C4.00019 37.4043 4.00018 37.4373 4.1192 37.358C4.35724 37.1663 4.59527 36.9811 4.82669 36.7828C4.88007 36.7298 4.9502 36.6971 5.02505 36.6902C5.05811 36.8489 4.9391 36.9745 4.90604 37.1134C4.89455 37.1667 4.86683 37.2152 4.82669 37.2522C4.58866 37.4043 4.38368 37.6026 4.16549 37.7679L4.1192 37.8076C4.1192 37.8076 4.04647 37.8737 4.00019 37.8473C3.9539 37.8208 4.00019 37.7679 4.00019 37.7151C3.98055 37.5747 3.98055 37.4323 4.00019 37.2919Z" fill="#013B28"/>
<path d="M3.96721 37.6886C3.96721 37.7283 3.96721 37.7812 3.96721 37.801C3.96721 37.8209 4.02011 37.768 4.04656 37.7481L4.66148 37.2654C4.7007 37.2404 4.7429 37.2204 4.78711 37.2059C4.79349 37.217 4.79685 37.2295 4.79685 37.2423C4.79685 37.2551 4.79349 37.2676 4.78711 37.2787C4.72099 37.444 4.7276 37.6423 4.59536 37.7878C4.50279 37.9068 4.35732 37.9663 4.25153 38.0787C4.23228 38.0955 4.20763 38.1047 4.1821 38.1047C4.15659 38.1047 4.13193 38.0955 4.11268 38.0787L3.96721 38.0986C3.90109 38.0589 3.92093 37.9928 3.91432 37.9333C3.9077 37.8737 3.92093 37.7812 3.96721 37.6886Z" fill="#01422B"/>
<path d="M4.62842 37.8143L4.80694 37.2324L4.86645 37.1134C5.56733 37.2655 6.28143 37.3647 6.98231 37.4969C7.08149 37.4969 7.18728 37.4969 7.26001 37.5961V37.6887C7.17379 37.8236 7.10284 37.9677 7.04843 38.1184L6.95586 38.2705C6.52608 38.1912 6.08968 38.1184 5.63345 38.0259C5.34913 37.9664 5.06481 37.9068 4.7805 37.8606C4.73143 37.8402 4.6805 37.8247 4.62842 37.8143Z" fill="#00BF69"/>
<path d="M4.14575 38.1449C4.21848 38.1449 4.26477 38.1449 4.31105 38.0589C4.40241 37.9671 4.51003 37.8931 4.62843 37.8407C4.59189 37.9707 4.56537 38.1033 4.54909 38.2374H4.46313C4.35267 38.2257 4.24518 38.1944 4.14575 38.1449Z" fill="#034D31"/>
<path d="M6.15585 41.6559V41.9005C6.11602 41.7803 6.11602 41.6505 6.15585 41.5303V41.6559Z" fill="#014A2F"/>
<path d="M7.27313 37.5961L5.95073 37.3581L5.02504 37.1928C4.97876 37.1928 4.90603 37.1928 4.89941 37.1135L5.04488 36.6903L5.17051 36.4192C5.17051 36.5382 5.26969 36.5184 5.3292 36.5316L6.36068 36.7167L7.63018 36.9349L7.531 37.173L7.27313 37.5961Z" fill="#00C36B"/>
<path d="M4.15906 39.6722H4.36403V40.0359V40.1681C4.30452 40.1681 4.32436 40.069 4.27807 40.0359L4.15906 39.6722Z" fill="#02241D"/>
<path fill-rule="evenodd" clip-rule="evenodd" d="M48.2083 37.2854C45.6561 37.2854 43.7915 37.3912 41.6822 35.5927C40.9368 34.9659 40.3375 34.1836 39.9263 33.3007C39.5151 32.4178 39.3019 31.4556 39.3019 30.4816V9.13794H43.0311V30.6998C43.0311 33.6885 45.6759 34.2637 48.2083 34.0587V37.2854Z" fill="white"/>
<path fill-rule="evenodd" clip-rule="evenodd" d="M50.5756 17.8525H54.1395V29.8666C54.1395 32.5511 56.2421 34.0587 58.7679 34.0587C61.2937 34.0587 63.3038 32.4718 63.3038 29.8666V17.8525H66.8676V28.855C66.8676 34.3231 64.4939 37.292 58.6753 37.292C53.3857 37.292 50.5822 34.5347 50.5822 29.3575L50.5756 17.8525Z" fill="white"/>
<path fill-rule="evenodd" clip-rule="evenodd" d="M70.5902 37.0275H74.1144V24.2662C74.1144 23.3017 74.4973 22.3768 75.1796 21.6947C75.8613 21.0128 76.7864 20.6296 77.7511 20.6296C78.7157 20.6296 79.6408 21.0128 80.3225 21.6947C81.0048 22.3768 81.3877 23.3017 81.3877 24.2662V37.0275H84.9912V24.2662C84.9912 23.3017 85.3741 22.3768 86.0564 21.6947C86.7381 21.0128 87.6632 20.6296 88.6279 20.6296C89.5926 20.6296 90.5176 21.0128 91.1993 21.6947C91.8817 22.3768 92.2645 23.3017 92.2645 24.2662V37.0275H95.7028V24.6762C95.6975 22.7822 94.943 20.9672 93.6034 19.6278C92.2645 18.2886 90.4495 17.5338 88.5551 17.5286C87.5336 17.5296 86.5246 17.7503 85.5956 18.1759C84.6666 18.6014 83.8407 19.2218 83.1729 19.9949C82.5031 19.2223 81.676 18.6024 80.7463 18.1769C79.8167 17.7515 78.8063 17.5303 77.7841 17.5286C75.8898 17.5338 74.0748 18.2886 72.7358 19.6278C71.3962 20.9672 70.6418 22.7822 70.6365 24.6762L70.5902 37.0275Z" fill="white"/>
<path d="M103.122 17.8195H99.3923V37.0009H103.122V17.8195Z" fill="white"/>
<path fill-rule="evenodd" clip-rule="evenodd" d="M101.257 11.3197C101.682 11.3197 102.098 11.4459 102.452 11.6823C102.805 11.9188 103.08 12.2547 103.242 12.6478C103.405 13.0408 103.447 13.4733 103.364 13.8903C103.28 14.3073 103.075 14.6902 102.774 14.9905C102.473 15.2907 102.089 15.4949 101.672 15.5771C101.255 15.6592 100.822 15.6157 100.43 15.452C100.038 15.2884 99.7023 15.0119 99.467 14.6577C99.2316 14.3034 99.1066 13.8873 99.1079 13.462C99.1079 13.1801 99.1635 12.901 99.2712 12.6407C99.3797 12.3803 99.5384 12.1438 99.7374 11.9448C99.9371 11.7458 100.174 11.5882 100.435 11.4808C100.695 11.3736 100.975 11.3189 101.257 11.3197Z" fill="#00FF89"/>
</g>
</svg>
